<svg width="59" height="61" viewBox="0 0 59 61" fill="none" xmlns="http://www.w3.org/2000/svg">
<path d="M46.5448 48.0834C47.0183 48.2824 47.4647 48.2562 47.9553 48.3407C48.337 48.2742 48.7566 48.2726 49.1448 48.2507L49.1292 48.2697C49.0586 48.3832 49.0514 48.4793 49.012 48.6026L48.8472 49.0455C47.1618 53.0711 43.805 56.1349 39.5783 57.1605L37.4964 57.502C37.1391 57.5613 36.7454 57.5442 36.3825 57.5476L34.4946 57.5524C34.6853 57.211 34.7609 56.7356 34.8324 56.3467C34.8738 55.8082 34.7579 55.4441 34.5435 54.9447L37.3855 54.9539C41.0293 54.7988 44.7123 52.3804 46.2167 48.9624C46.3395 48.6838 46.4837 48.3829 46.5448 48.0834Z" fill="#5A5091"/>
<path d="M46.5448 48.0834C47.0183 48.2824 47.4647 48.2562 47.9552 48.3407C47.8665 49.001 47.486 49.5883 47.1252 50.1314C44.8837 53.5054 41.4596 56.0472 37.3642 56.3063C36.5273 56.3593 35.6722 56.3121 34.8323 56.3266C34.8737 55.8082 34.7579 55.4441 34.5435 54.9447L37.3855 54.9539C41.0293 54.7988 44.7123 52.3804 46.2167 48.9624C46.3394 48.6838 46.4837 48.3829 46.5448 48.0834Z" fill="#6665A2"/>
<path d="M49.9217 11.8754C52.7746 15.3649 54.0977 19.9551 54.5561 24.4097L54.6726 25.4441C54.7569 26.7414 54.5847 28.3056 54.7301 29.5175L54.7402 29.6143C54.5432 29.3863 54.4223 28.7337 54.3005 28.435C53.5288 26.5406 52.1041 25.0464 50.2516 24.2634C49.9839 21.0344 48.4268 16.6146 46.4639 13.951L46.6265 13.9971C48.3823 14.4248 49.5381 13.6056 49.9217 11.8754Z" fill="#6665A2"/>
<path d="M9.13593 11.846C9.81771 13.7525 10.6356 14.1742 12.5868 13.8845C10.6112 17.1138 9.05916 20.3575 8.79502 24.2548C6.95666 24.984 5.53869 26.5735 4.75275 28.3836C4.61039 28.7115 4.52482 29.1075 4.35349 29.413C4.2759 28.6714 4.30076 27.9177 4.30256 27.1725L4.31934 25.7126L4.60938 22.8654C5.12166 19.4796 6.4628 15.6943 8.3948 12.9297C8.63427 12.587 8.94382 12.2606 9.12092 11.8792L9.13593 11.846Z" fill="#6665A2"/>
<path d="M34.4949 57.5592C34.3435 57.723 34.2311 57.939 34.1122 58.1278C33.3348 59.361 32.0844 59.8946 30.7008 59.9008L28.5263 59.9029C25.3577 59.8971 23.3069 56.156 25.6845 53.7797C26.7502 52.7146 27.5952 52.716 28.9723 52.7142L30.9525 52.7179C32.0762 52.7317 33.0792 53.0786 33.8203 54.001C34.0721 54.3144 34.2641 54.6528 34.5437 54.9448C34.7582 55.4441 34.874 55.8082 34.8326 56.3467C34.7612 56.7356 34.6856 57.211 34.4949 57.5592Z" fill="#FFDC60"/>
<path d="M9.13574 11.846C9.34681 10.3856 10.2411 9.39591 11.2269 8.38983C15.1412 4.39463 20.079 1.78917 25.5236 0.864859L26.8473 0.666303C27.1695 0.618865 27.4836 0.555321 27.8094 0.535583L30.8079 0.542441L33.6307 0.83817C35.9892 1.20196 38.5433 2.05463 40.6903 3.09847C43.3801 4.40624 47.3564 7.30895 49.1786 9.85115C49.4218 10.1905 50.0896 11.4315 49.922 11.8754C49.5383 13.6056 48.3825 14.4248 46.6267 13.9971L46.4641 13.951L46.3648 13.8716C46.1608 13.7057 45.9487 13.6299 45.7173 13.5189C45.0152 13.1823 44.5911 12.6512 44.0592 12.0956C36.6704 4.37642 24.7792 3.75566 16.5496 10.6091C15.5607 11.4327 14.676 12.6824 13.5721 13.3002C13.2097 13.503 12.8664 13.5379 12.5866 13.8844C10.6354 14.1742 9.81753 13.7524 9.13574 11.846Z" fill="#FFDC60"/>
<path d="M8.79484 24.2548C9.78153 24.0451 10.9576 23.7453 11.8087 24.491C12.372 24.9846 12.6707 25.7279 12.709 26.4757L12.9559 32.2372L13.6809 44.5661C13.7244 45.1248 13.7906 45.7276 13.7369 46.2878C13.6354 47.3474 12.6113 48.4275 11.5483 48.4619C9.58972 48.5252 7.06467 47.166 6.26103 45.3071C6.13556 45.0168 6.18643 45.0482 5.90578 44.9332L4.21281 44.0852C2.01426 42.8367 0.289056 40.6551 0.232369 38.0084L0.229004 36.6336C0.237436 31.9795 4.2953 30.144 4.35332 29.413C4.52465 29.1075 4.61021 28.7115 4.75257 28.3835C5.53852 26.5735 6.95649 24.984 8.79484 24.2548Z" fill="#FFDC60"/>
<path d="M46.545 48.0834C44.7122 46.8067 45.3201 45.2267 45.4404 43.2375L45.8096 37.1053L45.941 33.7245L46.3296 26.7861C46.3336 26.5096 46.3241 26.2225 46.358 25.9479C46.5229 24.6086 48.0179 23.8045 49.2349 23.996L49.2772 24.0033C49.6114 24.0585 49.9198 24.1958 50.252 24.2635C52.1045 25.0465 53.5291 26.5406 54.3009 28.435C54.4227 28.7337 54.5436 29.3864 54.7453 29.6144L54.7814 29.655C54.9553 29.8455 55.1839 30.0057 55.3792 30.1736L56.2343 30.9806C57.4646 32.2416 58.5937 33.983 58.7661 35.8045C58.7951 36.1121 58.7774 36.4363 58.7776 36.746L58.7752 38.203C58.7686 38.5472 58.6768 38.8954 58.6008 39.2294C57.9331 42.1667 55.6761 44.4031 52.7204 44.9214C52.7156 45.1198 52.7298 45.3505 52.6788 45.5431C52.3289 46.8656 50.3922 47.8439 49.1451 48.2453C48.7568 48.2727 48.3373 48.2742 47.9555 48.3408C47.4649 48.2563 47.0185 48.2824 46.545 48.0834Z" fill="#FFDC60"/>
</svg>
