<svg width="24" height="14" viewBox="0 0 24 14" fill="none" xmlns="http://www.w3.org/2000/svg">
    <path
        d="M12 3.11111C11.2089 3.11111 10.4355 3.33919 9.77772 3.76651C9.11992 4.19382 8.60723 4.80119 8.30448 5.51179C8.00173 6.22239 7.92252 7.00431 8.07686 7.75869C8.2312 8.51306 8.61216 9.20599 9.17157 9.74986C9.73098 10.2937 10.4437 10.6641 11.2196 10.8142C11.9956 10.9642 12.7998 10.8872 13.5307 10.5929C14.2616 10.2985 14.8864 9.80008 15.3259 9.16055C15.7654 8.52103 16 7.76915 16 7C16 5.9686 15.5786 4.97945 14.8284 4.25014C14.0783 3.52083 13.0609 3.11111 12 3.11111ZM12 9.33333C11.5253 9.33333 11.0613 9.19649 10.6666 8.9401C10.272 8.68371 9.96434 8.31929 9.78269 7.89293C9.60104 7.46657 9.55351 6.99741 9.64612 6.54479C9.73872 6.09217 9.9673 5.67641 10.3029 5.35008C10.6386 5.02376 11.0662 4.80153 11.5318 4.7115C11.9973 4.62147 12.4799 4.66768 12.9184 4.84428C13.357 5.02089 13.7318 5.31995 13.9955 5.70367C14.2592 6.08738 14.4 6.53851 14.4 7C14.4 7.61884 14.1471 8.21233 13.6971 8.64992C13.247 9.0875 12.6365 9.33333 12 9.33333ZM23.2 0H0.8C0.587827 0 0.384344 0.0819444 0.234315 0.227806C0.0842854 0.373668 0 0.571498 0 0.777778V13.2222C0 13.4285 0.0842854 13.6263 0.234315 13.7722C0.384344 13.9181 0.587827 14 0.8 14H23.2C23.4122 14 23.6157 13.9181 23.7657 13.7722C23.9157 13.6263 24 13.4285 24 13.2222V0.777778C24 0.571498 23.9157 0.373668 23.7657 0.227806C23.6157 0.0819444 23.4122 0 23.2 0ZM18.565 12.4444H5.435C5.16641 11.5613 4.67481 10.7575 4.00498 10.1063C3.33516 9.45505 2.5084 8.97711 1.6 8.71597V5.28403C2.5084 5.02289 3.33516 4.54495 4.00498 3.89373C4.67481 3.24252 5.16641 2.43872 5.435 1.55556H18.565C18.8336 2.43872 19.3252 3.24252 19.995 3.89373C20.6648 4.54495 21.4916 5.02289 22.4 5.28403V8.71597C21.4916 8.97711 20.6648 9.45505 19.995 10.1063C19.3252 10.7575 18.8336 11.5613 18.565 12.4444ZM22.4 3.63319C21.4404 3.23205 20.6756 2.48846 20.263 1.55556H22.4V3.63319ZM3.737 1.55556C3.32439 2.48846 2.55956 3.23205 1.6 3.63319V1.55556H3.737ZM1.6 10.3668C2.55956 10.768 3.32439 11.5115 3.737 12.4444H1.6V10.3668ZM20.263 12.4444C20.6756 11.5115 21.4404 10.768 22.4 10.3668V12.4444H20.263Z"
        fill="#636363" />
</svg>