<svg width="60" height="39" viewBox="0 0 60 39" fill="none" xmlns="http://www.w3.org/2000/svg">
<path d="M0.064902 7.46809C-0.0527788 6.24236 -0.0446872 4.50154 0.382395 3.35506C1.07224 1.50318 3.02731 0.0922533 5.03474 0.0115086C5.96281 -0.0258621 6.87977 0.0385227 7.80455 0.0526305L54.6699 0.0703409C58.6005 0.245188 59.7366 2.85663 59.7388 6.51041C59.7389 6.80082 59.7746 7.14256 59.669 7.41616L0.064902 7.46809Z" fill="#E0E1EC"/>
<path d="M0 7.51151L59.7447 7.46808L59.6935 13.1685L59.6852 18.2553H0.0270241L0.00628211 15.8205L0 7.51151Z" fill="#81639C"/>
<path d="M0 15.8723L0.0151456 13.369L57.4768 13.371C58.2299 13.3698 59.001 13.4126 59.7447 13.2766L59.7323 18.2553H0.0207605L0 15.8723Z" fill="#3B3E91"/>
<path d="M0.00607457 17.4255L59.7433 17.4491L59.7447 32.2501C59.7441 34.473 59.7089 35.1743 58.7028 37.2106C58.1605 38.3082 58.326 37.8309 57.6949 38.4233L57.3696 38.5506C56.1833 38.9475 54.1209 38.9591 52.7664 38.9877L45.8294 39L39.2154 38.9994L4.42404 38.9854C3.68946 38.9439 2.91676 38.7482 2.25936 38.4137C0.698947 37.0015 -0.000168284 35.5575 3.0384e-08 33.4771L0.00607457 17.4255Z" fill="#E0E1EC"/>
<path d="M23.8901 30.7021L25.3787 30.7035C26.0821 30.7075 26.9327 30.6795 27.2812 31.5319L27.3022 31.5858C27.6799 32.5028 26.6455 33.0265 26.012 33.1208C25.2125 33.2119 22.9077 33.3859 22.5031 32.3465L22.4865 32.3016C22.3061 31.8546 22.4113 30.956 22.9146 30.8138L22.9633 30.8006C23.2637 30.7129 23.5808 30.7168 23.8901 30.7021Z" fill="#6665A2"/>
<path d="M6.65784 31.5544L13.9091 31.5481C15.4797 31.5485 17.0895 31.4873 18.6548 31.6003C20.3657 31.724 20.2009 32.9605 18.9602 33.1399L8.45652 33.1682C7.89473 33.1691 7.31317 33.2088 6.75373 33.1825C5.55472 33.126 5.46784 31.7976 6.65784 31.5544Z" fill="#6665A2"/>
<path d="M10.0896 28.1506L7.85229 28.1845C7.49981 28.1869 7.10642 28.2416 6.75879 28.1922C5.29674 27.9844 5.76061 25.086 6.56108 25.077L10.4941 25.1989C11.3555 25.1893 12.2224 25.0378 13.0838 24.9916L16.7782 24.9579C17.3615 24.9568 18.787 24.7488 19.2625 25.087L19.3075 25.1186C20.1569 25.7357 20.1635 28.0153 19.0217 28.1432L10.2807 28.176L10.0896 28.1506Z" fill="#6665A2"/>
<path d="M46.5686 26.1392C46.7608 25.9403 46.9524 25.7241 47.1727 25.5534C49.3416 23.8726 52.9987 25.6029 53.1033 28.4896C53.2271 31.9006 49.4109 33.6337 46.6535 31.2757C46.5186 31.0724 46.3571 30.8876 46.2263 30.6806C45.2957 29.2072 45.5137 27.5084 46.5686 26.1392Z" fill="#FC1144"/>
<path d="M45.6385 31.596C44.9013 33.9146 41.0823 33.4073 39.5305 31.9665C35.4274 28.1573 41.5399 22.3202 45.5537 26.1376C44.5007 27.5926 44.2832 29.3979 45.2121 30.9637C45.3426 31.1836 45.5038 31.38 45.6385 31.596Z" fill="#FFDC60"/>
</svg>
