<svg width="85" height="85" viewBox="0 0 85 85" fill="none" xmlns="http://www.w3.org/2000/svg">
<path d="M21.9501 65.6877L61.0051 65.6507C61.7853 65.6517 62.8343 65.5433 63.5845 65.8036C63.6317 69.5438 61.562 71.267 58.081 71.2755L25.6623 71.278C24.6761 71.2406 23.725 70.5865 23.0774 69.8838C21.9505 68.6606 21.8905 67.265 21.9501 65.6877Z" fill="#FFFCF3"/>
<path d="M22.6304 30.6596L22.6291 16.2013C22.6306 15.6869 22.4452 14.5065 22.947 14.1646L23.0196 14.1166C23.3304 13.9234 25.6521 14.0143 26.1511 14.0142L50.0396 14.0143C50.867 14.0146 51.8781 13.9133 52.6809 14.1248L55.2049 15.19C57.2518 16.0306 59.4328 16.8227 60.4476 18.9744C61.1884 20.545 60.6555 21.7494 60.4061 23.3141L60.3405 28.9105C60.3387 29.1192 60.3158 29.3418 60.3477 29.547C60.2375 30.0494 60.2795 31.7993 60.4146 32.3364C60.5899 33.4555 60.2466 35.3396 60.4252 36.0716L60.598 36.7434L60.5861 36.7612C60.1448 37.1977 56.2972 36.8462 55.6775 36.7722C54.8501 36.6732 54.0321 36.5077 53.1989 36.4484L28.1885 36.311L27.1949 36.5344C26.5906 36.6925 25.926 36.7089 25.3068 36.7131L23.6924 36.7174C23.3584 36.7165 22.2911 36.8684 22.2456 36.3682C22.6215 35.7429 22.6507 35.2984 22.6424 34.5612L22.6293 33.0524L22.6304 30.6596Z" fill="#FFFCF3"/>
<path d="M28.1885 36.311C27.8349 36.3352 27.1768 36.4353 26.8516 36.3128C26.5345 35.7547 27.3184 35.5662 27.7101 35.5488L54.2118 35.5443C54.5277 35.5529 55.0371 35.5496 55.3319 35.6735C55.6805 35.8197 55.5952 36.2585 55.273 36.3666C55.0494 36.4418 54.7575 36.4204 54.5233 36.4219L53.1989 36.4235L28.1885 36.311Z" fill="#6665A2"/>
<path d="M51.3188 21.509C52.8522 21.3024 52.2306 21.704 52.4182 22.8281L27.9917 22.8763C26.7067 22.808 26.546 21.6406 27.7393 21.5279C28.5714 21.4494 29.4503 21.5091 30.2888 21.5088L51.3188 21.509Z" fill="#6665A2"/>
<path d="M34.4749 25.6125L51.0866 25.6127C51.8139 25.6134 52.5673 25.5752 53.291 25.6351C54.0626 25.699 54.5167 26.897 53.8513 26.9837C53.5593 27.0218 53.2445 27.0024 52.9496 27.0029L46.5937 27.0077L29.7813 27.0124C29.1103 27.0149 28.4132 27.0617 27.7453 27.018C26.6646 26.9473 26.7303 25.8634 27.5999 25.6693C27.8615 25.6109 28.1902 25.624 28.4579 25.6222L34.4749 25.6125Z" fill="#6665A2"/>
<path d="M47.3817 30.4556C47.845 30.4383 48.3211 30.4626 48.7865 30.4627L53.674 30.4606C54.1103 30.4577 54.558 30.432 54.9926 30.4636C55.6823 30.5139 55.8191 31.6833 54.912 31.7636C54.1549 31.8307 53.3637 31.7894 52.6022 31.7905L35.0915 31.7915L29.8962 31.7972C29.1887 31.7991 28.3858 31.8999 27.6934 31.7857C26.9481 31.6628 26.6687 31.0723 27.3178 30.6194L27.3718 30.5827C27.4966 30.4966 27.6162 30.4763 27.7677 30.4689L47.3817 30.4556Z" fill="#6665A2"/>
<path d="M52.6736 14.1597L55.2047 15.19C57.2516 16.0306 59.4326 16.8227 60.4474 18.9744C61.1882 20.5449 60.6553 21.7494 60.4059 23.3141L60.3673 23.1809C59.892 23.4258 59.4487 23.7285 58.9367 23.8958C57.2976 24.4315 55.6469 23.9742 54.3097 22.9045C52.3379 21.3275 52.5129 19.7376 52.5009 17.4524C52.4953 16.3632 52.4463 15.2307 52.6736 14.1597Z" fill="#FCD4BA"/>
<path d="M60.3433 29.547L63.2599 30.2672C63.1807 30.8442 63.2119 31.3755 63.3221 31.9472C63.7335 32.0299 64.1439 32.098 64.5141 32.3042C64.7044 32.3336 64.8672 32.3975 65.044 32.4692L65.186 32.7094C66.0901 34.2376 66.323 38.7091 66.0423 40.2967C65.9943 40.5676 65.9958 40.8859 65.87 41.1336L65.7775 41.1646C65.6681 41.8996 65.7096 42.671 65.7093 43.4116L65.7288 61.8065C65.7571 62.4432 65.9191 63.1935 65.7982 63.8208C65.6329 64.6787 64.5339 65.8141 63.6027 65.809L63.5851 65.8066C62.8349 65.5433 61.7858 65.6517 61.0057 65.6507L21.9567 65.6649C21.4503 65.619 20.4079 64.7707 20.0843 64.3817C19.1271 63.2306 19.3751 61.7497 19.3733 60.3623L19.3912 42.0345L19.741 37.536L19.7145 35.4847C19.6935 34.2064 19.5571 33.061 20.3945 31.9753C20.9319 31.2787 21.7787 30.7664 22.6549 30.6596L22.6196 33.0524L22.6425 34.5612C22.6508 35.2984 22.6216 35.7429 22.2457 36.3682C22.2912 36.8685 23.3585 36.7165 23.6925 36.7174L25.3069 36.7131C25.9261 36.7089 26.5907 36.6925 27.195 36.5344L28.1886 36.3291L53.199 36.4194C54.0322 36.5077 54.8502 36.6732 55.6776 36.7722C56.2973 36.8462 60.1449 37.1977 60.5862 36.7612L60.5981 36.7434L60.4253 36.0716C60.2467 35.3396 60.59 33.4555 60.4361 32.3364C60.2795 31.7993 60.2375 30.0494 60.3433 29.547Z" fill="#FFDC60"/>
<path d="M42.3617 45.0914C49.9382 44.7849 53.8757 54.3368 48.7942 59.9528C47.3018 61.6021 45.221 62.4651 43.0294 62.5809C38.4037 62.6867 34.4987 58.9703 34.172 54.3902C33.8352 49.6687 37.6683 45.3917 42.3617 45.0914Z" fill="#FF9C2F"/>
<path d="M41.9921 45.5049C42.1471 45.4649 42.3371 45.4821 42.4988 45.4816C47.7146 45.4668 50.8195 49.3041 50.8117 54.2733C50.805 58.5077 47.5707 61.8157 43.4233 62.379C39.2927 62.5766 35.5577 59.7849 34.7326 55.6693L34.4945 54.1445C34.4646 53.8048 34.5147 53.4359 34.5479 53.0978C34.9329 49.1839 37.9896 45.8127 41.9921 45.5049Z" fill="#FFDC60"/>
<path d="M42.3762 47.9993C42.6757 47.9777 42.7594 48.2898 42.7758 48.5442L42.8243 51.0224C43.3199 51.4224 45.3185 50.9006 44.4054 52.6477C43.8395 53.7305 42.1659 54.1664 41.0976 54.501C42.045 55.6509 44.5037 57.7542 44.6075 59.1223L44.5339 59.1592C44.4775 59.1348 44.473 59.1358 44.4149 59.0931L42.9085 57.4711L40.6644 55.2034C40.1183 54.6487 39.3264 54.061 40.4317 53.671L40.4958 53.6491C41.4319 53.3228 42.5242 53.2334 43.401 52.7425C43.4924 52.6914 43.87 52.3609 43.6775 52.2546C43.5455 52.1819 43.2198 52.2201 43.065 52.2196L41.129 52.2182C40.7657 52.2179 40.2821 52.276 39.9449 52.14L39.9013 52.1215C39.6385 52.014 39.3016 51.4796 39.6071 51.2808C39.8256 51.1385 41.6385 51.2736 42.1669 51.1164L42.1954 48.3936C42.2144 48.2125 42.2564 48.1379 42.3762 47.9993Z" fill="white"/>
</svg>
