<svg width="142" height="142" viewBox="0 0 142 142" fill="none" xmlns="http://www.w3.org/2000/svg">
<path d="M45.0408 45.389C44.3904 45.3144 43.608 45.1807 42.9882 44.968C41.939 44.6074 42.1617 43.3882 43.2261 43.3328L43.3351 43.328C45.8293 43.1905 48.3775 43.5643 50.8594 43.178C52.3466 42.9461 53.6398 42.3376 55.0321 41.8143C57.3695 40.9357 60.3898 40.8841 62.8562 41.3068C62.6615 42.6569 63.2073 44.2042 63.4952 45.5166C62.7023 45.2877 61.622 45.2226 60.795 45.1782L50.9837 45.1502C50.3358 45.1563 49.4336 45.0997 48.8279 45.3302C47.6534 45.1652 46.1979 45.1133 45.0408 45.389Z" fill="#FE680F"/>
<path d="M79.1783 41.1334L82.8101 41.1084C86.6034 41.1046 88.4413 42.7348 91.8646 43.2792C92.9551 43.4525 94.2056 43.3422 95.312 43.3424L97.9587 43.3336C98.4057 43.3313 99.0575 43.247 99.4624 43.4268C101.04 45.1222 98.2868 45.156 97.2711 45.3812C96.3287 45.1238 94.6197 45.0456 93.7189 45.4475L78.5371 45.1441C79.1437 43.878 79.2834 42.5387 79.1783 41.1334Z" fill="url(#paint0_linear_226_1112)"/>
<path d="M45.0408 45.389C46.1979 45.1133 47.6534 45.1652 48.8279 45.3235C50.17 47.253 51.4031 51.0127 52.2332 53.202L58.1733 68.647C58.4626 69.4588 58.6939 70.3652 59.0619 71.1409C57.9237 71.2247 56.6548 71.3791 55.5216 71.2821L48.8052 53.965C48.1626 52.35 47.5807 50.6471 46.6902 49.1475C46.257 50.6338 45.5597 52.0841 44.9282 53.4957L38.9603 67.3252C38.4137 68.5694 37.9067 69.9844 37.1756 71.1282L37.1249 71.2064L37.0677 71.2094C36.5433 71.2774 34.005 71.2194 33.6104 70.7917L43.1956 48.8954C43.7548 47.6762 44.2113 46.4598 45.0408 45.389Z" fill="#013158"/>
<path d="M93.7191 45.4475C94.6199 45.0456 96.3289 45.1238 97.2713 45.3812C99.4288 48.0942 100.664 52.6875 101.972 55.8834L107.078 68.6595C107.349 69.359 107.64 70.0462 107.77 70.7881C107.359 71.2588 104.951 71.3691 104.393 71.1337L97.9785 55.2513C97.1948 53.3731 96.4936 51.3325 95.501 49.5599L86.7408 71.2613C85.8711 71.3065 83.5245 71.0907 82.7163 70.79C83.7425 69.5855 85.8805 63.9513 86.5143 62.3619L91.7785 49.2233C92.3049 47.9871 92.8105 46.4454 93.7191 45.4475Z" fill="#013158"/>
<path d="M62.856 41.3067C63.0995 41.0105 63.2343 40.3208 63.3707 39.9375L64.2202 37.8416C65.2425 35.5524 67.3897 34.1643 69.6709 33.3012C73.7001 31.7769 77.378 35.8403 78.6313 39.2688C78.8429 39.8482 78.9264 40.4872 79.1449 41.0499L79.1782 41.1334C79.2833 42.5387 79.1435 43.878 78.537 45.1604L78.4901 45.202C77.4495 46.1408 76.6169 47.2147 75.2982 47.8188L75.1367 47.7639C74.9063 47.9242 73.6183 48.8119 73.3745 48.8128L72.9413 48.9858C72.7832 48.749 72.862 47.7994 72.8157 48.5587C72.7827 49.1015 72.4413 49.375 72.4049 49.9271C72.3112 51.3535 72.383 52.8312 72.3844 54.2637L72.3838 75.8125C72.3769 76.414 72.2787 77.0001 72.2601 77.598L72.2418 90.0923C72.2391 91.9264 72.2973 93.7857 72.1584 95.614C71.019 95.6434 69.8087 95.7857 68.6819 95.7013L68.6045 95.7033L68.7146 49.52C68.5296 49.3112 68.2847 49.2382 68.0537 49.094L66.5785 48.0972C65.486 47.2954 64.4929 46.4296 63.495 45.5165C63.2071 44.2042 62.6613 42.6569 62.856 41.3067Z" fill="url(#paint1_linear_226_1112)"/>
<path d="M82.7159 70.7901C83.5241 71.0907 85.8707 71.3065 86.7405 71.2613C87.4785 71.4463 88.2892 71.4124 89.0427 71.4152L102.097 71.3697L104.393 71.1412C104.95 71.3692 107.359 71.2588 107.769 70.7881C108.197 71.4365 109.962 70.855 110.898 72.8058L110.956 72.9348C111.963 75.1383 109.775 79.6307 108.49 81.3363C104.905 86.0922 97.9648 88.9014 92.1783 87.2873C87.654 86.0251 83.8847 83.0218 81.586 78.9307C80.0665 76.2263 79.2891 72.6194 82.5315 70.8802L82.7159 70.7901Z" fill="#FFDC60"/>
<path d="M59.0615 71.162C61.6649 71.8706 62.2626 73.637 61.7304 76.2063C60.9663 79.8944 57.9496 83.1782 54.8825 85.164C45.6101 91.1676 34.1436 86.3091 31.1416 75.803C30.3154 72.912 31.09 72.2264 33.6099 70.7917C34.0046 71.2194 36.5429 71.2773 37.0673 71.2094L37.1244 71.2063C38.9272 71.4321 40.7202 71.4074 42.5293 71.4096L53.2406 71.4132C53.9709 71.411 54.8048 71.4621 55.5212 71.3123C56.6544 71.3791 57.9233 71.2247 59.0615 71.162Z" fill="#FFDC60"/>
<path d="M68.6046 95.7122L68.682 95.7013C69.8089 95.7856 71.0192 95.6434 72.1585 95.614C72.2975 93.7857 72.2392 91.9264 72.242 90.0923L72.2603 77.598C72.2789 77 72.3771 76.414 72.384 75.8125L72.3846 54.2637C72.3832 52.8312 72.3113 51.3535 72.4051 49.9271C72.4414 49.3749 72.7828 49.1015 72.8158 48.5587C72.8622 47.7994 72.7834 48.749 72.9415 48.9858L73.3747 48.8128C73.6185 48.8119 74.9064 47.9242 75.1369 47.7639L75.2983 47.8188L73.9907 48.6342C73.7033 48.8061 73.4554 48.8827 73.2413 49.1522L73.2194 95.5727L77.889 95.5502C79.0771 95.5502 80.2897 95.5066 81.472 95.6456C84.2859 95.9762 86.7973 98.0402 87.0907 100.964C87.1223 101.279 87.1107 101.63 87.2144 101.929C88.7362 101.915 90.2045 101.731 91.3793 102.896C93.7253 105.222 91.8619 108.909 88.9631 109.371C87.8093 109.555 86.4781 109.404 85.3027 109.4L53.7354 109.388C52.0722 109.34 50.2173 107.601 49.7783 106.015L49.7542 105.933C49.3925 104.612 50.5363 102.85 51.644 102.261C53.3849 101.334 55.4852 103.525 56.1763 102.183L56.1552 102.144L55.7442 100.944C54.9657 97.8671 59.4423 96.17 61.7762 95.9071C63.8438 95.6742 66.6768 96.1456 68.535 95.7288L68.6046 95.7122Z" fill="#FFDC60"/>
<defs>
<linearGradient id="paint0_linear_226_1112" x1="98.5488" y1="40.2661" x2="79.0929" y2="46.0332" gradientUnits="userSpaceOnUse">
<stop stop-color="#FF4000"/>
<stop offset="1" stop-color="#FF6C00"/>
</linearGradient>
<linearGradient id="paint1_linear_226_1112" x1="61.4579" y1="36.6474" x2="82.9437" y2="91.1499" gradientUnits="userSpaceOnUse">
<stop stop-color="#FEDC62"/>
<stop offset="1" stop-color="#FFF590"/>
</linearGradient>
</defs>
</svg>
