<svg width="172" height="40" viewBox="0 0 172 40" fill="none" xmlns="http://www.w3.org/2000/svg">
    <path
        d="M13.2602 36.8988C13.2575 37.5138 13.7547 38.0051 14.3841 38.0095C14.9843 38.0138 15.4456 37.5629 15.4515 36.9663C15.4574 36.3558 14.9552 35.8564 14.3309 35.8432C13.7072 35.8298 13.2195 36.3634 13.2602 36.8988ZM6.0854 32.915C6.65577 32.9418 7.12473 32.3186 7.12098 31.8439C7.11616 31.233 6.59204 30.7321 5.96312 30.7332C5.38562 30.7343 4.9104 31.2146 4.91005 31.7979C4.90969 32.4029 5.45309 32.9193 6.0854 32.915ZM10.6781 32.343C10.6376 31.8616 10.3209 31.399 9.91906 31.2782C9.38297 31.117 8.90615 31.27 8.60678 31.7113C8.40381 32.0105 8.2069 32.3141 8.02017 32.6237C7.89753 32.8272 7.76275 33.0341 7.69509 33.2581C7.54318 33.7605 7.81988 34.3083 8.29991 34.5281C8.78798 34.7518 9.3828 34.5961 9.67574 34.155C9.95066 33.741 10.2231 33.3247 10.4751 32.8966C10.5732 32.7299 10.6122 32.5285 10.6781 32.343ZM13.9146 33.3642C13.8971 33.357 13.8798 33.3497 13.8623 33.3426C13.8625 32.9038 13.6777 32.5714 13.29 32.3604C12.9335 32.1665 12.579 32.1719 12.2194 32.3646C11.9538 32.5071 11.8144 32.7506 11.6625 32.9912C11.2978 33.5691 10.9163 34.1366 10.5594 34.7193C10.2359 35.2473 10.4184 35.9154 10.9507 36.2326C11.4832 36.55 12.1036 36.3997 12.4663 35.8488C12.8671 35.2404 13.2622 34.6281 13.642 34.0067C13.7622 33.8103 13.8254 33.5793 13.9146 33.3642ZM14.1853 21.2109H11.5711V20.1876C11.6487 20.183 11.7176 20.1751 11.7865 20.1751C14.1588 20.1767 16.5312 20.1791 18.9033 20.1807C19.2005 20.1808 19.4979 20.1792 19.795 20.1726C19.9012 20.1703 19.9473 20.2041 19.9444 20.3165C19.9383 20.562 19.9375 20.808 19.9432 21.0534C19.946 21.1691 19.9085 21.2141 19.7886 21.213C19.207 21.208 18.6252 21.2102 18.0434 21.2089C17.3002 21.2073 16.5569 21.2021 15.8137 21.2079C15.741 21.2084 15.6536 21.2593 15.5986 21.3132C14.9934 21.9048 14.3932 22.5016 13.7916 23.0969C13.4244 23.4602 13.0635 23.8303 12.6886 24.1855C12.0839 24.7586 12.1834 25.7509 12.9164 26.1503C13.3575 26.3907 13.9627 26.3483 14.3383 25.9777C14.8303 25.4924 15.314 24.9985 15.81 24.5172C16.3112 24.0306 16.9362 23.8546 17.6166 23.8463C18.2235 23.8388 18.8306 23.8406 19.4376 23.8478C19.5344 23.8488 19.6429 23.8799 19.7252 23.9308C21.0323 24.7391 22.3367 25.5517 23.6403 26.3659C25.0632 27.2548 26.4844 28.1466 27.9066 29.0367C27.9554 29.0673 28.0068 29.0935 28.0853 29.1379C28.1878 28.9243 28.296 28.7224 28.3826 28.5115C28.4643 28.3125 28.5732 28.1611 28.7832 28.0726C28.972 27.9929 29.142 27.8687 29.3194 27.7627C29.5442 27.6286 29.7752 27.5557 30.0487 27.5595C31.1541 27.5741 32.26 27.5656 33.3657 27.5656C33.4357 27.5656 33.5055 27.5656 33.5894 27.5656V28.6051C33.5167 28.6051 33.448 28.6051 33.3794 28.6051C32.306 28.6054 31.2322 28.5906 30.1594 28.6135C29.7466 28.6222 29.3958 28.8107 29.2055 29.214C29.1316 29.3704 29.0565 29.5262 28.9833 29.6794C29.9632 30.6514 30.187 31.6718 29.6292 32.593C29.3023 33.1326 28.8415 33.4956 28.2233 33.6368C27.6192 33.7748 27.0458 33.6725 26.4858 33.3377C26.4091 34.1964 26.0392 34.8423 25.2882 35.2295C24.535 35.6179 23.795 35.5512 23.0563 35.1086C22.9767 35.9539 22.6163 36.6103 21.8583 37.0036C21.1001 37.3967 20.3547 37.324 19.6704 36.9202C19.5472 37.2689 19.4655 37.6166 19.3078 37.9256C18.7771 38.9657 17.3179 39.3657 16.3262 38.7402C16.0215 38.5481 15.8221 38.5028 15.4809 38.7343C14.3543 39.4993 12.6738 38.8297 12.3053 37.5143C12.2882 37.4533 12.266 37.3935 12.2423 37.3206C11.5996 37.4967 10.9834 37.4751 10.4069 37.1216C9.83462 36.7708 9.50687 36.2508 9.37405 35.589C8.74603 35.7467 8.15763 35.679 7.61476 35.3389C7.07725 35.0021 6.76609 34.5051 6.64363 33.8751C6.19305 33.9925 5.76889 33.9808 5.34973 33.8317C3.7736 33.2717 3.35498 31.2905 4.58568 30.2116C4.83078 29.9964 4.83114 29.9964 4.68672 29.691C4.65369 29.621 4.6021 29.5553 4.58657 29.482C4.47411 28.9493 4.04531 28.7663 3.61026 28.5919C3.54724 28.5665 3.47173 28.5654 3.40193 28.5653C2.34136 28.5633 1.28097 28.5633 0.220574 28.5628C0.156844 28.5628 0.0929336 28.5628 0.0136719 28.5628V27.5227C0.0799018 27.5227 0.147918 27.5227 0.215754 27.5227C1.36041 27.5225 2.50506 27.5131 3.64918 27.5313C3.84251 27.5343 4.03942 27.6436 4.2249 27.7259C4.49606 27.8464 4.76205 27.9801 5.02198 28.1234C5.09785 28.1652 5.16425 28.25 5.20263 28.3305C5.39758 28.7381 5.57931 29.1519 5.77282 29.5601C5.79817 29.6133 5.86422 29.684 5.91188 29.6842C6.80715 29.6897 7.45642 30.1121 7.9377 30.8624C8.4911 30.3306 9.15197 30.047 9.92067 30.2123C10.6703 30.3733 11.2463 30.7999 11.5398 31.5529C12.496 30.9845 13.4314 31.0154 14.2144 31.7634C15.1637 32.6704 15.1011 33.7255 14.3899 34.7939C14.8297 34.831 15.2123 34.9635 15.5609 35.199C16.2978 35.6961 16.6265 36.565 16.4398 37.411C16.4108 37.5417 16.4307 37.6043 16.5438 37.6752C16.873 37.8814 17.2033 38.0303 17.6148 37.9772C18.3344 37.8846 18.8294 36.9691 18.3992 36.2531C18.2133 35.9441 17.9024 35.8118 17.6312 35.6217C17.4418 35.4889 17.2388 35.3755 17.0249 35.2429C17.2136 34.9439 17.3938 34.6581 17.5833 34.3574C17.9072 34.5636 18.2107 34.7586 18.5157 34.9508C19.0988 35.3182 19.6813 35.6863 20.2666 36.0498C20.8531 36.4138 21.4957 36.138 21.7607 35.7686C22.1487 35.2277 22.0659 34.5206 21.5516 34.1639C20.9577 33.7523 20.3361 33.3806 19.7261 32.9923C19.4274 32.8024 19.1275 32.6142 18.8151 32.4171C18.9995 32.1279 19.1789 31.8462 19.3735 31.5411C19.4915 31.6117 19.607 31.6772 19.7191 31.7482C21.0391 32.5844 22.3601 33.419 23.6774 34.2594C24.2067 34.5972 24.9011 34.4546 25.248 33.9204C25.6164 33.3529 25.4083 32.6228 24.8868 32.3098C24.2565 31.9312 23.6517 31.5101 23.031 31.115C22.2634 30.6266 21.4906 30.1462 20.7204 29.6617C20.6887 29.6417 20.6612 29.6148 20.6183 29.5803C20.799 29.2933 20.9768 29.011 21.1635 28.7147C21.5405 28.9525 21.9045 29.1811 22.2675 29.4113C23.1334 29.9607 23.9993 30.51 24.8644 31.0608C25.5779 31.5151 26.2916 31.9692 27.0025 32.4277C27.3302 32.639 27.6787 32.7167 28.0555 32.6049C28.5257 32.4655 28.7964 32.1326 28.8585 31.6591C28.9178 31.2066 28.7751 30.8089 28.3719 30.5531C27.2979 29.8715 26.2198 29.196 25.1409 28.5221C23.6629 27.599 22.1832 26.6789 20.7035 25.7588C20.2722 25.4907 19.8387 25.2256 19.4044 24.9623C19.3455 24.9267 19.2753 24.888 19.2105 24.888C18.6095 24.8876 18.008 24.8848 17.4073 24.9042C16.9707 24.9185 16.6333 25.1417 16.3328 25.4523C15.8749 25.9252 15.4201 26.4059 14.9209 26.8329C13.9327 27.6782 12.3544 27.4263 11.6384 26.34C11.0291 25.4157 11.1535 24.2419 11.9513 23.4499C12.6798 22.7267 13.4137 22.009 14.1446 21.2885C14.1567 21.2766 14.1613 21.2573 14.1853 21.2109Z"
        fill="#232323" />
    <path
        d="M15.6758 6.52686C16.0907 7.11097 16.4802 7.65937 16.8904 8.23688C17.2991 7.65812 17.6893 7.10543 18.0979 6.52686H15.6758ZM3.6814 9.16124C3.70621 9.05127 3.72514 8.9397 3.75673 8.83187C3.82707 8.59105 3.90383 8.35202 3.98827 8.07889H2.10938V7.04938H14.7686C14.3882 6.51008 14.8541 6.01291 14.4849 5.48967H20.1073C19.7462 6.00291 19.3938 6.50383 19.0159 7.04099H31.4889V8.06782H29.6141C29.6892 8.31435 29.7492 8.52893 29.8197 8.73994C30.4579 10.6474 31.1002 12.5534 31.7366 14.4616C32.3507 16.3032 32.975 18.1416 33.5559 19.9937C33.6653 20.3423 33.593 20.7486 33.5977 21.1285C33.598 21.1544 33.5409 21.2031 33.51 21.2037C33.2016 21.2094 32.8929 21.2071 32.5621 21.2071C32.5621 20.9737 32.5734 20.7618 32.5589 20.5517C32.5459 20.3611 32.5312 20.1636 32.4721 19.9842C31.9369 18.3606 31.3901 16.7409 30.8503 15.1189C30.3062 13.4844 29.7674 11.8481 29.2238 10.2132C28.988 9.50417 28.7465 8.79689 28.5039 8.07817H28.2466C24.9942 8.07817 21.742 8.07907 18.4896 8.07496C18.3391 8.07478 18.2461 8.11531 18.1579 8.24348C17.778 8.79689 17.3851 9.34118 16.9963 9.88852C16.9665 9.93029 16.9326 9.96903 16.8867 10.0269C16.7003 9.76802 16.5193 9.51935 16.3415 9.26835C16.0875 8.91042 15.84 8.5475 15.5789 8.19493C15.5346 8.13494 15.4352 8.08264 15.3612 8.08264C11.9924 8.0771 8.62365 8.07782 5.25485 8.07835C5.20397 8.07835 5.15292 8.08496 5.09347 8.08906C4.90621 8.64818 4.72144 9.20444 4.53203 9.75927C4.51186 9.81818 4.46402 9.86781 4.42921 9.92172C4.17982 9.66823 3.93061 9.41473 3.6814 9.16124Z"
        fill="#232323" />
    <path
        d="M17.3178 13.3325C17.3178 13.4666 17.3178 13.5628 17.3178 13.659C17.3182 15.3915 17.3185 17.1239 17.3189 18.8562C17.3191 19.1042 17.3189 19.1047 17.0632 19.1054C16.8181 19.106 16.5729 19.1056 16.2945 19.1056C16.2945 19.0188 16.2945 18.9448 16.2945 18.8705C16.2945 17.0994 16.292 15.3282 16.2979 13.5569C16.2985 13.3807 16.2551 13.3149 16.0716 13.3291C15.8595 13.3457 15.6446 13.3429 15.432 13.3306C15.269 13.3213 15.2259 13.3795 15.2268 13.5392C15.2342 14.748 15.2325 15.9567 15.2334 17.1655C15.2338 17.7344 15.2334 18.3032 15.2334 18.8721V19.0929H14.1909C14.1909 18.9987 14.1909 18.9165 14.1909 18.8346C14.1905 17.07 14.188 15.3051 14.1938 13.5405C14.1943 13.3777 14.1484 13.3252 13.9876 13.3313C13.7109 13.342 13.4336 13.3343 13.1334 13.3343C13.1334 13.0028 13.1305 12.6945 13.1378 12.3866C13.1385 12.3562 13.1976 12.3205 13.2364 12.3005C13.2619 12.2873 13.2997 12.2973 13.3321 12.2973C15.6462 12.2971 17.9603 12.2968 20.2744 12.2971C20.3372 12.2971 20.3999 12.303 20.4711 12.3066V13.3298H19.432V19.0885H18.3875C18.3875 19.0096 18.3875 18.9285 18.3875 18.8475C18.3866 17.0892 18.3821 15.331 18.3896 13.5728C18.3905 13.3705 18.3313 13.3166 18.1383 13.3286C17.8757 13.3447 17.6115 13.3325 17.3178 13.3325Z"
        fill="#232323" />
    <path
        d="M32.5288 23.1339H24.1875C26.2742 25.722 30.4349 25.7311 32.5288 23.1339ZM28.3823 22.1015C29.4024 22.1015 30.4226 22.1037 31.4427 22.1006C32.1012 22.0988 32.7598 22.0928 33.4181 22.0801C33.5606 22.0774 33.6118 22.1163 33.6083 22.2638C33.599 22.6321 33.6077 23.0007 33.602 23.369C33.6009 23.4347 33.5801 23.512 33.5411 23.5632C33.0356 24.2273 32.4272 24.7821 31.7083 25.2052C30.566 25.8777 29.3288 26.1906 28.0021 26.1162C27.0156 26.0607 26.0871 25.7981 25.2176 25.3209C24.4412 24.895 23.7818 24.336 23.2384 23.6407C23.1695 23.5525 23.1255 23.4234 23.1205 23.311C23.1054 22.9691 23.1234 22.6257 23.1113 22.2836C23.1052 22.1174 23.1641 22.0794 23.321 22.0799C25.0082 22.0849 26.6952 22.083 28.3823 22.083C28.3823 22.0892 28.3823 22.0953 28.3823 22.1015Z"
        fill="#232323" />
    <path
        d="M1.103 23.1246C1.09568 23.1446 1.08836 23.1648 1.08086 23.1848C2.29478 24.5283 3.812 25.1874 5.6293 25.0696C7.14831 24.971 8.41507 24.3203 9.45029 23.1246H1.103ZM3.14345 22.124C3.20539 22.1107 3.26716 22.0855 3.32911 22.0855C5.67554 22.0835 8.02197 22.0837 10.3684 22.0839C10.4004 22.0839 10.4321 22.0885 10.4885 22.093C10.4885 22.4229 10.4714 22.7508 10.4937 23.0763C10.5139 23.3729 10.4243 23.5973 10.2274 23.8237C9.09058 25.1301 7.66886 25.8918 5.95081 26.0839C4.32434 26.2658 2.83783 25.8645 1.49145 24.9435C0.938939 24.5656 0.469617 24.0952 0.0600984 23.5661C0.0306431 23.5279 0.00332988 23.4754 0.00297285 23.4294C-0.00131157 22.9909 0.000295109 22.5523 0.000295109 22.1173C0.0315356 22.1026 0.0483163 22.0878 0.0650969 22.0878C0.730788 22.0858 1.39648 22.0842 2.06217 22.086C2.11091 22.086 2.15946 22.1121 2.20802 22.126C2.33637 22.2513 2.46758 22.3738 2.59219 22.5027C2.66181 22.5744 2.71929 22.575 2.78588 22.5029C2.90388 22.3754 3.0242 22.2503 3.14345 22.124Z"
        fill="#232323" />
    <path
        d="M24.1573 21.2065C23.8269 21.2065 23.5186 21.2114 23.2108 21.1996C23.1771 21.1983 23.1217 21.1028 23.1191 21.0489C23.0908 20.4728 23.123 19.9091 23.339 19.3576C23.5668 18.7759 23.7442 18.1746 23.9438 17.5819C24.3303 16.4337 24.7173 15.2857 25.1031 14.1371C25.6511 12.5054 26.2008 10.8743 26.7408 9.23999C26.7899 9.09182 26.7646 8.92045 26.7935 8.76335C26.8035 8.70855 26.871 8.62429 26.9154 8.62232C27.2048 8.60965 27.495 8.6159 27.8101 8.6159C27.8142 8.93223 27.8515 9.23035 27.7516 9.52669C27.2123 11.128 26.6764 12.7304 26.1378 14.3318C25.7002 15.6331 25.2597 16.9332 24.8221 18.2344C24.6206 18.8335 24.4188 19.4326 24.2271 20.0349C24.183 20.1736 24.1668 20.3245 24.1602 20.4707C24.1495 20.7078 24.1573 20.9456 24.1573 21.2065Z"
        fill="#232323" />
    <path
        d="M10.4837 21.2087C10.1684 21.2087 9.878 21.2149 9.58826 21.2022C9.54096 21.2003 9.45366 21.1098 9.45812 21.068C9.54703 20.229 9.19338 19.4895 8.94167 18.7278C8.37917 17.0264 7.8163 15.3251 7.24915 13.6253C6.79 12.2487 6.31622 10.877 5.86903 9.49668C5.78245 9.22962 5.78799 8.93274 5.74854 8.63105H6.77822C6.89819 9.61075 7.31592 10.4848 7.60315 11.3959C8.02784 12.7427 8.47789 14.0814 8.92364 15.4213C9.18606 16.2102 9.46384 16.9937 9.72947 17.7813C9.97654 18.5145 10.217 19.25 10.4598 19.9846C10.47 20.0151 10.4825 20.0471 10.4826 20.0783C10.4842 20.4453 10.4837 20.8122 10.4837 21.2087Z"
        fill="#232323" />
    <path
        d="M3.68133 9.16124C3.93054 9.41473 4.17975 9.66823 4.42896 9.92172C4.38129 10.1238 4.34898 10.3311 4.28347 10.5273C3.63616 12.4663 2.98172 14.403 2.33281 16.3417C1.91311 17.5956 1.48681 18.8476 1.09354 20.1099C1.00839 20.3828 1.05141 20.6958 1.03677 20.9905C1.03374 21.0546 1.03641 21.1189 1.03641 21.2069C0.715797 21.2069 0.401428 21.2103 0.0875945 21.2015C0.0574251 21.2006 0.0042269 21.1246 0.00404838 21.0833C0.00279876 20.5571 -0.00987588 20.0415 0.174354 19.5215C0.732399 17.9468 1.24546 16.3562 1.77458 14.7713C2.26479 13.3032 2.75339 11.8345 3.242 10.3657C3.35803 10.0169 3.46943 9.66626 3.58743 9.31798C3.60653 9.26157 3.64937 9.21319 3.68133 9.16124Z"
        fill="#232323" />
    <path d="M17.7172 11.2126H15.8999V10.2013H17.7172V11.2126Z" fill="#232323" />
    <path
        d="M21.0088 21.2088C21.0088 20.878 21.006 20.5701 21.0133 20.2623C21.0142 20.2321 21.0776 20.1787 21.1129 20.1778C21.3837 20.1705 21.6549 20.1679 21.9254 20.1795C21.9666 20.1812 22.0362 20.2621 22.0384 20.3087C22.0501 20.5663 22.0498 20.8248 22.041 21.0824C22.0394 21.1256 21.9773 21.202 21.9412 21.2033C21.6397 21.2131 21.3379 21.2088 21.0088 21.2088Z"
        fill="#232323" />
    <path
        d="M3.14344 22.1237C3.02419 22.2499 2.90387 22.3751 2.78605 22.5025C2.71928 22.5746 2.6618 22.5741 2.59236 22.5024C2.46757 22.3735 2.33654 22.2508 2.20801 22.1257C2.26478 22.1105 2.32208 22.0809 2.37831 22.0828C2.63359 22.0916 2.88834 22.1093 3.14344 22.1237Z"
        fill="#232323" />
    <path
        d="M14.9012 9.91504C14.2992 8.98568 13.6847 8.05632 13.0576 7.12713C15.1638 5.29412 16.4646 2.77096 16.724 0.000188828C18.3146 0.51414 19.8961 1.03773 21.4683 1.57078C20.4184 5.14327 18.0777 8.09041 14.9012 9.91504Z"
        fill="#232323" />
    <path
        d="M15.7302 8.95982C17.9452 7.3653 19.6349 5.16204 20.6003 2.57622C20.1889 2.40038 19.9766 1.90857 20.096 1.46263C19.3902 1.21092 18.6823 0.960997 17.9726 0.712857C17.8956 1.1172 17.4745 1.29679 17.0596 1.12488C16.611 3.27297 15.5445 5.22006 13.9786 6.75977C14.1919 7.01773 14.1205 7.4501 13.7988 7.70484C14.097 8.12757 14.3924 8.55048 14.6853 8.97339C15.0636 8.71793 15.5221 8.70061 15.7302 8.95982Z"
        fill="#FFFCF3" />
    <path
        d="M19.1346 4.25852C19.0107 4.34653 18.8934 4.42525 18.7733 4.49898C18.7615 4.50612 18.7401 4.50523 18.7276 4.50255C18.6306 4.4822 18.5314 4.45971 18.4361 4.43704C18.4184 4.43275 18.4036 4.42561 18.3786 4.45078C18.1056 4.72641 17.7534 4.84959 17.3858 4.83763C17.1938 4.8312 17.0254 4.7839 16.8649 4.71624C16.8599 4.74551 16.8553 4.76908 16.8521 4.79229C16.786 5.27464 16.6955 5.76039 16.5925 6.23649C16.5879 6.25809 16.5647 6.28058 16.55 6.30272C16.5407 6.30468 16.5315 6.30683 16.5216 6.30933C16.3769 6.2397 16.2346 6.16687 16.0978 6.08939C16.0857 6.08279 16.0843 6.06565 16.0873 6.05315C16.1958 5.5874 16.2887 5.1163 16.3586 4.6484C16.3719 4.55932 16.4085 4.48613 16.5063 4.41811C16.5452 4.39062 16.5773 4.35795 16.6159 4.32386C16.6452 4.34278 16.6736 4.36188 16.7028 4.37938C16.8897 4.4922 17.104 4.57914 17.3744 4.57878C17.5831 4.5786 17.7788 4.51005 17.9371 4.35813C17.9555 4.34064 17.9721 4.32118 17.9932 4.29797C17.5581 4.14998 17.3519 4.05912 16.9677 3.85204C17.0954 3.80384 17.2123 3.75617 17.3242 3.70744C17.3371 3.70172 17.3578 3.70994 17.3714 3.71636C17.6058 3.82579 17.8518 3.92344 18.1079 4.00752C18.1288 4.01431 18.1394 4.0177 18.1604 4.02448C18.1638 3.9936 18.1688 3.9695 18.1681 3.94754C18.1643 3.7933 18.074 3.68744 17.9437 3.61907C17.8111 3.54963 17.6663 3.49429 17.5317 3.42716C17.491 3.40681 17.4478 3.38896 17.398 3.36486C17.5137 3.30827 17.6133 3.25454 17.712 3.20098C17.7227 3.19527 17.7418 3.19938 17.7536 3.2042C18.048 3.32523 18.362 3.42502 18.6895 3.50089C18.9229 3.55498 19.1632 3.59783 19.4102 3.62621C19.4357 3.62925 19.4484 3.63085 19.474 3.63353C19.4609 3.64674 19.4525 3.65656 19.4429 3.66424C19.356 3.73778 19.2653 3.80794 19.1764 3.87863C19.1499 3.8997 19.1298 3.90381 19.106 3.8997C18.953 3.87328 18.8008 3.84204 18.6546 3.80687C18.6397 3.91827 18.6226 4.02912 18.6021 4.14962C18.8106 4.20086 18.9172 4.22282 19.1346 4.25852Z"
        fill="#232323" />
    <path
        d="M14.769 11.1792C14.6574 10.0262 14.3968 8.84562 13.9878 7.65902C16.7132 6.11252 19.1087 3.73574 20.6433 0.477802C22.1957 1.40913 23.6306 2.4381 24.9377 3.54598C22.3224 7.35518 18.6999 9.89673 14.769 11.1792Z"
        fill="#232323" />
    <path
        d="M16.0201 10.321C18.8937 9.08874 21.5368 7.13165 23.6358 4.44408C23.3032 4.12257 23.2975 3.49901 23.6128 3.0138C23.003 2.52252 22.3671 2.04784 21.7059 1.59191C21.4483 2.04891 20.9163 2.15852 20.5269 1.87164C19.1086 4.27609 17.2065 6.13481 15.0727 7.46923C15.2223 7.8052 15.0018 8.26827 14.5864 8.47803C14.7537 9.01876 14.8901 9.5577 14.9956 10.0931C15.4749 9.89617 15.9366 9.98561 16.0201 10.321Z"
        fill="#FFFCF3" />
    <path
        d="M22.3437 5.32603C22.1507 5.40333 21.9693 5.47009 21.7858 5.52954C21.7679 5.53543 21.7397 5.52722 21.724 5.51972C21.6016 5.46134 21.4768 5.39958 21.3574 5.3387C21.3354 5.32746 21.3179 5.31317 21.2765 5.3387C20.8248 5.61737 20.317 5.66807 19.8321 5.53364C19.5788 5.46349 19.3701 5.34656 19.1784 5.20499C19.1625 5.24213 19.1486 5.27212 19.137 5.30175C18.894 5.92228 18.6173 6.5387 18.3276 7.13887C18.3144 7.16601 18.2762 7.18832 18.2497 7.21313C18.2367 7.21296 18.2237 7.21278 18.2096 7.21278C18.0396 7.07371 17.8738 6.93108 17.7169 6.78416C17.7029 6.77148 17.7067 6.7481 17.7145 6.73239C18.0087 6.14828 18.2836 5.5515 18.527 4.95186C18.5734 4.83778 18.6459 4.75227 18.7974 4.69301C18.8579 4.66944 18.9113 4.63588 18.9734 4.60303C19.0063 4.63767 19.0381 4.67212 19.0711 4.70479C19.2835 4.9149 19.5404 5.09949 19.9003 5.18589C20.1777 5.25266 20.46 5.22445 20.7193 5.07343C20.7495 5.05611 20.7775 5.03558 20.8132 5.01148C20.2823 4.67498 20.0374 4.48753 19.5931 4.08872C19.7784 4.0657 19.949 4.03999 20.1136 4.01107C20.1326 4.00768 20.1574 4.02535 20.1734 4.03803C20.45 4.25921 20.7458 4.46807 21.0594 4.66212C21.0849 4.67801 21.0978 4.68587 21.1235 4.70157C21.138 4.66159 21.1522 4.63124 21.1587 4.60178C21.2029 4.39542 21.1173 4.22565 20.9657 4.09283C20.8116 3.95787 20.637 3.83773 20.4796 3.70509C20.4319 3.66492 20.3803 3.62726 20.3218 3.57942C20.4937 3.54121 20.6436 3.50194 20.7922 3.46249C20.8081 3.4582 20.8322 3.46981 20.8463 3.48016C21.1988 3.73544 21.5844 3.9693 21.9956 4.17548C22.2885 4.3224 22.5939 4.45683 22.9135 4.57393C22.9463 4.58607 22.9628 4.59214 22.9958 4.6041C22.9744 4.61749 22.9601 4.62785 22.9446 4.63499C22.8055 4.70479 22.6623 4.76888 22.5213 4.83439C22.4793 4.85385 22.4513 4.85278 22.421 4.83975C22.226 4.75531 22.0338 4.66498 21.8506 4.57108C21.7949 4.71443 21.7367 4.85653 21.6707 5.01005C21.9313 5.14519 22.0661 5.20874 22.3437 5.32603Z"
        fill="#232323" />
    <path
        d="M17.4033 6.80586C17.5672 6.7232 17.7364 6.68143 17.9114 6.68072C18.0287 6.68089 18.1447 6.70232 18.2602 6.74516L17.2209 7.26929C17.1866 7.21502 17.1646 7.167 17.1593 7.12612C17.1429 7.00276 17.2246 6.89601 17.4033 6.80586Z"
        fill="#F2D62B" />
    <path
        d="M16.7658 8.3344C16.7708 8.454 16.6817 8.55951 16.4987 8.6518C16.2581 8.77319 16.0298 8.82318 15.8125 8.80265C15.729 8.79497 15.6338 8.77141 15.5283 8.73321L16.6915 8.1466C16.7378 8.22282 16.7628 8.28602 16.7658 8.3344Z"
        fill="#F2D62B" />
    <path
        d="M20.7189 5.80678C18.7993 4.67909 15.5109 4.63839 13.3746 5.71574C11.2381 6.79309 11.0617 8.58112 12.9815 9.70864C14.9011 10.8363 18.1906 10.877 20.3269 9.79968C22.4634 8.72233 22.6387 6.93448 20.7189 5.80678Z"
        fill="#232323" />
    <path
        d="M20.9654 10.3008C21.019 10.2631 21.0711 10.2249 21.1209 10.1862L21.1214 10.1858C21.1222 10.1853 21.1229 10.1846 21.1234 10.1842C21.1714 10.1467 21.217 10.1087 21.2612 10.0703C21.2721 10.0609 21.283 10.0516 21.2935 10.0421C21.3037 10.0332 21.3144 10.0243 21.3244 10.0152C21.3376 10.0032 21.3489 9.99088 21.3617 9.97892C21.3946 9.94804 21.4267 9.91698 21.4572 9.88556C21.4663 9.87628 21.4767 9.86735 21.4854 9.85807C21.4958 9.84718 21.5045 9.83611 21.5145 9.82522C21.5395 9.79826 21.5635 9.77113 21.5867 9.74382C21.5968 9.73203 21.6083 9.72043 21.6181 9.70847C21.6261 9.69883 21.6327 9.68866 21.6406 9.67902C21.66 9.65456 21.6786 9.6301 21.6968 9.60547C21.7066 9.59208 21.7179 9.57887 21.7275 9.5653C21.7343 9.55548 21.74 9.54566 21.7466 9.53584C21.7621 9.51317 21.777 9.49032 21.7914 9.46747C21.8002 9.45355 21.8102 9.4398 21.8186 9.42588C21.8248 9.41534 21.83 9.40463 21.8361 9.3941C21.8487 9.37197 21.8609 9.34965 21.8726 9.32734C21.8798 9.31395 21.8882 9.30074 21.8948 9.28717C21.9007 9.27539 21.9053 9.26343 21.9109 9.25164C21.9212 9.23004 21.931 9.20844 21.9403 9.18666C21.9457 9.17435 21.9521 9.16203 21.9571 9.14971C21.9624 9.13632 21.9664 9.12276 21.9715 9.10937C21.9796 9.08777 21.9874 9.06599 21.9948 9.04439C21.9985 9.03332 22.0031 9.02243 22.0065 9.01154C22.0112 8.99654 22.0142 8.98137 22.0185 8.9662C22.0246 8.94442 22.0306 8.92264 22.0358 8.90086C22.0381 8.89122 22.0413 8.88176 22.0435 8.87212C22.0471 8.85569 22.0488 8.83927 22.0521 8.82285C22.0562 8.80053 22.0604 8.77804 22.0637 8.75572C22.0649 8.74733 22.0669 8.73894 22.0679 8.73055C22.0701 8.71359 22.0704 8.69663 22.0721 8.67968C22.0742 8.65575 22.0765 8.63201 22.0778 8.60827C22.0781 8.60041 22.0794 8.59256 22.0796 8.5847C22.0806 8.55079 22.0806 8.51687 22.0796 8.48295L22.0506 7.61875C22.0519 7.66052 22.0508 7.70229 22.0488 7.74407C22.0476 7.76781 22.0453 7.79155 22.0431 7.81529C22.0406 7.84082 22.0383 7.86617 22.0346 7.89152C22.0314 7.91401 22.0272 7.93633 22.023 7.95882C22.0181 7.98471 22.0131 8.01077 22.0069 8.03666C22.0017 8.05843 21.9956 8.08021 21.9896 8.10217C21.9823 8.12824 21.9744 8.15412 21.9658 8.18018C21.9585 8.20196 21.9507 8.22356 21.9424 8.24516C21.9328 8.27105 21.9225 8.29693 21.9114 8.32264C21.9019 8.34424 21.8923 8.36584 21.8819 8.38744C21.87 8.41279 21.8571 8.43814 21.8437 8.46331C21.8319 8.48563 21.8198 8.50776 21.807 8.5299C21.7929 8.55453 21.7779 8.57881 21.7623 8.60327C21.7479 8.62612 21.7332 8.64897 21.7177 8.67164C21.7018 8.69503 21.6848 8.71824 21.6677 8.74126C21.6497 8.7659 21.6311 8.79036 21.6117 8.81481C21.5943 8.83641 21.5761 8.85819 21.5577 8.87961C21.5345 8.90693 21.5104 8.93406 21.4856 8.96102C21.4669 8.98137 21.448 9.00136 21.4283 9.02136C21.3976 9.05278 21.3657 9.08384 21.3326 9.11472C21.3101 9.13579 21.2882 9.15703 21.2646 9.17792C21.2539 9.18738 21.2432 9.19684 21.2323 9.20612C21.1879 9.2445 21.1425 9.28253 21.0945 9.32002C21.0938 9.32055 21.0932 9.32109 21.0925 9.32162C21.0425 9.36054 20.9902 9.39874 20.9365 9.43659C20.9199 9.44837 20.9026 9.4598 20.8854 9.4714C20.8506 9.49514 20.8148 9.51871 20.7783 9.54209C20.7351 9.56976 20.6903 9.5969 20.6452 9.62385C20.6187 9.63956 20.5929 9.65545 20.5655 9.67098C20.512 9.70151 20.4561 9.73132 20.3997 9.76078C20.3752 9.77363 20.352 9.78684 20.327 9.79951C20.2453 9.84075 20.1612 9.87967 20.0764 9.91769C20.0518 9.92858 20.0268 9.93929 20.002 9.95C19.9365 9.97821 19.87 10.0055 19.8027 10.0319C19.7794 10.041 19.7561 10.0505 19.7326 10.0594C19.6444 10.0928 19.555 10.125 19.4643 10.1551C19.4498 10.1599 19.435 10.1642 19.4205 10.169C19.3425 10.1944 19.2638 10.2185 19.1844 10.2415C19.1553 10.2499 19.1262 10.2579 19.0971 10.2662C19.0323 10.284 18.9669 10.3011 18.9012 10.3176C18.8743 10.3242 18.8475 10.3313 18.8204 10.3377C18.7288 10.3595 18.6367 10.3802 18.5437 10.3992C18.4701 10.4141 18.3962 10.4279 18.3219 10.4411C18.2998 10.445 18.2775 10.4484 18.2552 10.4522C18.2068 10.4602 18.1586 10.4681 18.11 10.4754C18.0102 10.4906 17.9099 10.5045 17.8091 10.5163C17.7937 10.518 17.7784 10.5195 17.763 10.5211C17.6853 10.53 17.6073 10.5379 17.5291 10.5446C17.4958 10.5477 17.4626 10.55 17.4292 10.5525C17.3722 10.557 17.3153 10.5611 17.2582 10.5643C17.2217 10.5664 17.1851 10.5684 17.1485 10.5702C17.0971 10.5725 17.0455 10.5746 16.9939 10.5762C16.9559 10.5773 16.9181 10.5784 16.8801 10.5793C16.8326 10.5802 16.7851 10.5805 16.7374 10.5807C16.6985 10.5809 16.6596 10.5811 16.6207 10.5809C16.5746 10.5805 16.5286 10.5796 16.4827 10.5786C16.4436 10.5777 16.4043 10.577 16.3652 10.5755C16.32 10.5741 16.2751 10.572 16.2299 10.5696C16.1906 10.5679 16.1515 10.5661 16.1123 10.5636C16.0685 10.5609 16.0248 10.5577 15.981 10.5543C15.9416 10.5514 15.9021 10.5486 15.8627 10.5452C15.8184 10.5413 15.7743 10.5366 15.7302 10.5321C15.6917 10.528 15.6529 10.5243 15.6145 10.5198C15.5697 10.5147 15.5253 10.5088 15.4808 10.5029C15.4433 10.4981 15.4059 10.4934 15.3685 10.4881C15.3189 10.4809 15.2698 10.4729 15.2206 10.4648C15.1877 10.4595 15.1547 10.4547 15.122 10.449C15.0585 10.4379 14.9954 10.4258 14.9326 10.4133C14.9135 10.4095 14.8942 10.4061 14.8751 10.4024C14.7921 10.3852 14.7096 10.3668 14.6282 10.3472C14.6097 10.3429 14.5916 10.3379 14.5733 10.3333C14.5061 10.3167 14.4395 10.2995 14.3739 10.2813C14.3473 10.2738 14.321 10.266 14.2946 10.2585C14.2289 10.2394 14.1637 10.2196 14.0993 10.1987C14.067 10.1883 14.0345 10.1781 14.0027 10.1673C13.982 10.1603 13.9615 10.1532 13.9409 10.146C13.8922 10.1291 13.8442 10.1114 13.7965 10.0934C13.7803 10.0873 13.7639 10.0814 13.7478 10.0751C13.7064 10.0591 13.6659 10.0421 13.6251 10.0253C13.5986 10.0143 13.5718 10.0037 13.5455 9.99249C13.5022 9.97375 13.4597 9.95411 13.4172 9.93447C13.3956 9.92448 13.3734 9.91501 13.352 9.90484C13.309 9.88413 13.267 9.86253 13.2251 9.84093C13.2046 9.83058 13.1833 9.82058 13.163 9.80969C13.1012 9.77702 13.0407 9.74328 12.9814 9.70847C12.1117 9.19773 11.6722 8.55132 11.6504 7.89688L11.6793 8.76108C11.7013 9.41552 12.1408 10.0618 13.0103 10.5727C13.0696 10.6075 13.1303 10.6412 13.1921 10.6739C13.2122 10.6846 13.2335 10.6946 13.254 10.7051C13.2944 10.7258 13.3343 10.7467 13.3756 10.7665C13.3774 10.7673 13.3792 10.7681 13.3809 10.7689C13.4024 10.7792 13.4247 10.7887 13.4463 10.7987C13.4888 10.8183 13.5311 10.8379 13.5745 10.8567C13.6009 10.8681 13.628 10.8787 13.6546 10.8897C13.6891 10.9038 13.723 10.9186 13.7578 10.9322C13.764 10.9345 13.7705 10.9368 13.7765 10.9392C13.7928 10.9456 13.8094 10.9515 13.8256 10.9576C13.8733 10.9756 13.9213 10.9933 13.9699 11.0102C13.9904 11.0174 14.0111 11.0245 14.0316 11.0315C14.0479 11.037 14.0638 11.0429 14.08 11.0482C14.0959 11.0534 14.1123 11.0577 14.1282 11.0629C14.1927 11.0836 14.2578 11.1036 14.3237 11.1227C14.3403 11.1275 14.3564 11.133 14.373 11.1377C14.3828 11.1404 14.393 11.1427 14.4026 11.1454C14.4685 11.1636 14.5349 11.1809 14.6018 11.1973C14.6173 11.2012 14.6323 11.2057 14.6479 11.2094C14.6509 11.2102 14.6541 11.2107 14.6573 11.2114C14.7387 11.231 14.821 11.2494 14.904 11.2664C14.9057 11.2667 14.9069 11.2671 14.9085 11.2675C14.926 11.271 14.9442 11.2739 14.9619 11.2775C15.0245 11.29 15.0874 11.3021 15.1509 11.3132C15.1558 11.3139 15.1606 11.3149 15.1656 11.3158C15.1934 11.3207 15.2218 11.3246 15.25 11.3291C15.2991 11.3371 15.348 11.3451 15.3975 11.3523C15.405 11.3533 15.4123 11.3546 15.4198 11.3556C15.4496 11.3599 15.4798 11.3631 15.5098 11.3671C15.5542 11.373 15.5987 11.3789 15.6435 11.384C15.6526 11.3851 15.6615 11.3865 15.6706 11.3876C15.7001 11.3908 15.7297 11.3931 15.7593 11.3962C15.8032 11.4008 15.8473 11.4055 15.8916 11.4092C15.9021 11.4103 15.9123 11.4115 15.9228 11.4124C15.9519 11.4147 15.981 11.4163 16.0103 11.4185C16.0539 11.4219 16.0974 11.4251 16.1412 11.4278C16.1528 11.4285 16.1642 11.4296 16.1758 11.4303C16.2035 11.4319 16.2313 11.4326 16.2592 11.4338C16.3042 11.436 16.3491 11.4383 16.3943 11.4397C16.4072 11.4403 16.42 11.4412 16.433 11.4415C16.4591 11.4422 16.4855 11.4422 16.5116 11.4428C16.5577 11.4438 16.6037 11.4447 16.6498 11.4451C16.6646 11.4451 16.6794 11.4456 16.6942 11.4458C16.7183 11.4458 16.7422 11.4451 16.7663 11.4449C16.814 11.4447 16.8615 11.4444 16.9092 11.4433C16.9265 11.4429 16.9436 11.4433 16.9609 11.4428C16.9816 11.4422 17.0022 11.441 17.0229 11.4404C17.0745 11.4387 17.1261 11.4367 17.1775 11.4342C17.1978 11.4333 17.2183 11.4329 17.2387 11.4319C17.2549 11.431 17.271 11.4296 17.2873 11.4285C17.3444 11.4251 17.4013 11.4212 17.4581 11.4167C17.4813 11.4149 17.5043 11.4138 17.5274 11.4119C17.5377 11.4112 17.5479 11.4097 17.5581 11.4088C17.6361 11.4021 17.7139 11.3942 17.7917 11.3855C17.8051 11.3839 17.8187 11.383 17.8321 11.3814C17.8341 11.3812 17.836 11.3806 17.8382 11.3805C17.939 11.3687 18.0392 11.3548 18.1391 11.3396C18.1493 11.338 18.1595 11.3369 18.1697 11.3355C18.2079 11.3296 18.2457 11.3228 18.2837 11.3164C18.3062 11.3126 18.3287 11.3091 18.351 11.3051C18.4242 11.2923 18.4971 11.2787 18.5694 11.2641C18.5704 11.2639 18.5715 11.2635 18.5726 11.2634C18.6658 11.2444 18.7579 11.2237 18.8495 11.2018C18.8766 11.1953 18.9032 11.1884 18.9301 11.1818C18.9958 11.1654 19.0612 11.1482 19.1262 11.1302C19.142 11.1259 19.1585 11.1221 19.1745 11.1175C19.1876 11.1138 19.2002 11.1095 19.2133 11.1057C19.2927 11.0827 19.3714 11.0586 19.4493 11.0332C19.4639 11.0284 19.4787 11.0241 19.4932 11.0193C19.5841 10.989 19.6733 10.957 19.7617 10.9235C19.7852 10.9145 19.8083 10.9053 19.8317 10.8961C19.899 10.8697 19.9654 10.8424 20.0309 10.8142C20.0559 10.8035 20.0807 10.7928 20.1053 10.7819C20.1903 10.7439 20.2742 10.705 20.356 10.6637C20.3627 10.6603 20.3694 10.6569 20.376 10.6535C20.3942 10.6443 20.4108 10.6343 20.4286 10.625C20.4852 10.5953 20.5409 10.5655 20.5946 10.535C20.6218 10.5197 20.6477 10.5038 20.6741 10.4881C20.7194 10.4611 20.7641 10.434 20.8073 10.4063C20.8181 10.3993 20.8303 10.3927 20.841 10.3856C20.8663 10.3692 20.8901 10.3522 20.9145 10.3354C20.9315 10.324 20.9488 10.3126 20.9654 10.3008Z"
        fill="#232323" />
    <path
        d="M13.5461 9.22831C15.1824 10.1404 17.9971 10.1723 19.8207 9.2999C20.707 8.87574 21.2233 8.29645 21.2374 7.71056C21.2499 7.18875 20.8653 6.68319 20.1543 6.28688C19.3126 5.81774 18.1588 5.58156 16.9888 5.58156C15.8845 5.58156 14.7661 5.79185 13.8809 6.21547C12.9942 6.63981 12.4775 7.2191 12.4636 7.80517C12.4629 7.83123 12.464 7.8573 12.4654 7.88318C12.4659 7.89425 12.4665 7.90532 12.4674 7.91621C12.5079 8.3982 12.886 8.86039 13.5461 9.22831Z"
        fill="#FFFCF3" />
    <path
        d="M19.0253 7.2681C18.8232 7.33308 18.6363 7.39378 18.4494 7.45198C18.4311 7.45787 18.4013 7.45233 18.3844 7.44626C18.2508 7.40271 18.1178 7.3579 17.9849 7.3138C17.9602 7.30595 17.9404 7.29506 17.8993 7.32023C17.4511 7.59658 16.9564 7.70547 16.4316 7.68994C16.1576 7.68137 15.9157 7.63317 15.6773 7.56587C15.6722 7.6005 15.6673 7.62871 15.6647 7.65602C15.6091 8.22799 15.5545 8.7996 15.4974 9.37104C15.4953 9.3971 15.4703 9.42549 15.4563 9.4528C15.4454 9.45637 15.4346 9.45976 15.423 9.46387C15.2364 9.39853 15.0491 9.33391 14.8647 9.26696C14.8485 9.26125 14.8429 9.24143 14.8438 9.22644C14.874 8.66572 14.9095 8.10446 14.9319 7.54498C14.9368 7.43859 14.9777 7.34701 15.1159 7.254C15.1709 7.21669 15.2155 7.17403 15.2707 7.12958C15.3173 7.14832 15.3624 7.16724 15.4083 7.18492C15.7025 7.29756 16.0206 7.38539 16.4191 7.38575C16.7261 7.38664 17.0134 7.31738 17.2692 7.15475C17.299 7.13618 17.3261 7.11494 17.3613 7.09012L15.7948 6.54207C16.0015 6.47692 16.1913 6.41658 16.3823 6.35963C16.4041 6.35285 16.4371 6.36266 16.4589 6.37034C16.8348 6.50102 17.2103 6.6324 17.5864 6.76397L17.663 6.79075C17.6748 6.75522 17.6871 6.72809 17.6915 6.7022C17.7173 6.51958 17.6051 6.38427 17.4084 6.28965C17.2078 6.19361 16.9782 6.11738 16.76 6.03294C16.694 6.00742 16.6229 5.98492 16.5401 5.956C16.7461 5.89067 16.9279 5.83229 17.1107 5.77659C17.1303 5.77052 17.1622 5.77695 17.1817 5.78373C17.6658 5.94975 18.1486 6.11703 18.6322 6.28376C18.9763 6.40265 19.3193 6.52244 19.6635 6.64133L19.7516 6.67221C19.7272 6.68221 19.7108 6.69024 19.6933 6.69542C19.5355 6.74683 19.3768 6.79646 19.22 6.84895C19.1736 6.86501 19.1434 6.86341 19.1102 6.8518C18.898 6.77593 18.6836 6.70185 18.4731 6.62812C18.4151 6.75326 18.3571 6.87751 18.2946 7.01247L19.0253 7.2681Z"
        fill="#232323" />
    <path
        d="M54.8484 28.0709C55.4969 28.0709 56.0675 27.8958 56.5604 27.5456C57.0662 27.1954 57.3192 26.6701 57.3192 25.9697C57.3192 25.2564 57.0468 24.7116 56.502 24.3355C55.9703 23.9594 55.205 23.6351 54.2063 23.3627C53.2206 23.0774 52.5007 22.831 52.0468 22.6234C51.6058 22.4159 51.1843 22.1435 50.7822 21.8063C49.9781 21.1319 49.576 20.0878 49.576 18.674C49.576 17.5197 49.9845 16.5275 50.8017 15.6974C51.6317 14.8673 52.7602 14.4522 54.1869 14.4522C54.8743 14.4522 55.5877 14.556 56.327 14.7635C57.0792 14.9581 57.5461 15.0553 57.7277 15.0553C57.9093 15.0553 58.0714 14.9256 58.2141 14.6662H58.4281L58.5643 18.5962H58.253C57.6305 17.4678 56.9755 16.5664 56.288 15.8919C55.6136 15.2045 54.8743 14.8608 54.0701 14.8608C53.279 14.8608 52.6629 15.0488 52.2219 15.425C51.7809 15.7882 51.5604 16.281 51.5604 16.9036C51.5604 17.5132 51.8198 17.9866 52.3386 18.3238C52.8704 18.6481 53.5189 18.914 54.2841 19.1215C55.0494 19.329 55.5487 19.4717 55.7822 19.5495C56.0286 19.6273 56.327 19.7376 56.6771 19.8802C57.0403 20.0099 57.3321 20.1526 57.5526 20.3083C57.7861 20.4509 58.026 20.639 58.2725 20.8725C58.5319 21.093 58.7329 21.3394 58.8756 21.6118C59.2258 22.2343 59.4009 22.9736 59.4009 23.8297C59.4009 25.2304 58.9599 26.3588 58.0779 27.2149C57.2089 28.0579 56.0611 28.4795 54.6343 28.4795C53.895 28.4795 53.0455 28.3822 52.0857 28.1876C51.1389 27.9931 50.6136 27.8958 50.5098 27.8958C50.3282 27.8958 50.1531 28.0904 49.9845 28.4795H49.7122L49.5176 23.8491H49.8483C50.419 24.9775 51.1454 25.9633 52.0273 26.8063C52.9223 27.6494 53.8626 28.0709 54.8484 28.0709ZM65.5022 28.4795C63.8291 28.4795 62.571 28.0514 61.7279 27.1954C60.8978 26.3264 60.4828 25.1267 60.4828 23.5962C60.4828 22.0527 60.9497 20.8725 61.8836 20.0553C62.8304 19.2382 64.0301 18.8297 65.4828 18.8297C68.427 18.8297 69.8408 20.3083 69.724 23.2655H64.2376V24.0242C64.2376 25.2953 64.3998 26.2551 64.724 26.9036C65.0483 27.5521 65.6125 27.8764 66.4166 27.8764C67.9212 27.8764 68.9069 27.0722 69.3738 25.4639L69.724 25.5223C69.4776 26.4561 69.0301 27.1824 68.3816 27.7013C67.7461 28.2201 66.7863 28.4795 65.5022 28.4795ZM64.2571 22.8763H66.261V21.923C66.261 20.8725 66.1961 20.1591 66.0664 19.783C65.9497 19.3939 65.7033 19.1993 65.3271 19.1993C64.964 19.1993 64.6916 19.4068 64.51 19.8219C64.3414 20.2239 64.2571 20.9243 64.2571 21.923V22.8763ZM71.3899 25.5028V19.3744H70.3198V19.0242H71.3899V16.5145L75.0086 15.6195V19.0242H77.5377V19.3744H75.0086V25.9308C75.0086 26.5404 75.0669 26.9879 75.1837 27.2732C75.3134 27.5586 75.5728 27.7013 75.9619 27.7013C76.351 27.7013 76.6882 27.5067 76.9735 27.1176C77.2719 26.7285 77.4664 26.1967 77.5572 25.5223L77.8879 25.5612C77.7842 26.4561 77.4988 27.1695 77.0319 27.7013C76.565 28.2201 75.7933 28.4795 74.7167 28.4795C73.6402 28.4795 72.8166 28.2655 72.2459 27.8374C71.6752 27.4094 71.3899 26.6312 71.3899 25.5028ZM77.996 13.6935H82.7625V27.9347H83.852V28.2849H78.0738V27.9347H79.1439V14.0437H77.996V13.6935ZM89.3463 28.4795C87.6732 28.4795 86.4151 28.0514 85.572 27.1954C84.7419 26.3264 84.3269 25.1267 84.3269 23.5962C84.3269 22.0527 84.7938 20.8725 85.7276 20.0553C86.6745 19.2382 87.8742 18.8297 89.3269 18.8297C92.2711 18.8297 93.6848 20.3083 93.5681 23.2655H88.0817V24.0242C88.0817 25.2953 88.2439 26.2551 88.5681 26.9036C88.8924 27.5521 89.4566 27.8764 90.2607 27.8764C91.7653 27.8764 92.751 27.0722 93.2179 25.4639L93.5681 25.5223C93.3217 26.4561 92.8742 27.1824 92.2257 27.7013C91.5902 28.2201 90.6304 28.4795 89.3463 28.4795ZM88.1012 22.8763H90.1051V21.923C90.1051 20.8725 90.0402 20.1591 89.9105 19.783C89.7938 19.3939 89.5474 19.1993 89.1712 19.1993C88.8081 19.1993 88.5357 19.4068 88.3541 19.8219C88.1855 20.2239 88.1012 20.9243 88.1012 21.923V22.8763ZM94.4752 14.6662H101.479V15.0942H99.4169V27.8569H100.117C101.22 27.8569 102.095 27.5197 102.744 26.8452C103.405 26.1708 104.073 25.1332 104.748 23.7324H105.156L104.787 28.2849H94.4752V27.8569H95.6231V15.0942H94.4752V14.6662ZM112.135 24.4522V22.7985C112.135 21.5404 112.063 20.626 111.921 20.0553C111.791 19.4717 111.48 19.1799 110.987 19.1799C110.702 19.1799 110.468 19.2642 110.287 19.4328C110.118 19.5884 109.995 19.8543 109.917 20.2304C109.8 20.8141 109.742 21.7025 109.742 22.8958V24.4133C109.742 25.8271 109.781 26.6766 109.859 26.962C109.949 27.2473 110.04 27.4808 110.131 27.6623C110.274 27.9736 110.552 28.1293 110.968 28.1293C111.473 28.1293 111.804 27.8374 111.96 27.2538C112.076 26.8387 112.135 25.9049 112.135 24.4522ZM110.929 28.4795C109.307 28.4795 108.082 28.0644 107.252 27.2343C106.421 26.4042 106.006 25.2175 106.006 23.674C106.006 22.1176 106.447 20.9243 107.329 20.0942C108.224 19.2512 109.476 18.8297 111.084 18.8297C112.693 18.8297 113.892 19.2188 114.683 19.997C115.475 20.7622 115.87 21.936 115.87 23.5184C115.87 26.8258 114.223 28.4795 110.929 28.4795ZM121.084 23.7129H121.648V22.2149C121.648 20.9827 121.576 20.1591 121.434 19.7441C121.304 19.316 121.045 19.102 120.656 19.102C120.422 19.102 120.208 19.1669 120.014 19.2966C119.832 19.4133 119.741 19.5819 119.741 19.8024C119.741 20.0099 119.78 20.2239 119.858 20.4444H120.344C120.448 20.7168 120.5 21.0476 120.5 21.4367C120.5 21.8128 120.338 22.1435 120.014 22.4289C119.689 22.7013 119.281 22.8374 118.788 22.8374C117.672 22.8374 117.115 22.2992 117.115 21.2227C117.115 19.6273 118.47 18.8297 121.181 18.8297C122.724 18.8297 123.788 19.0955 124.372 19.6273C124.968 20.1461 125.267 21.1059 125.267 22.5067V26.4561C125.267 27.1306 125.455 27.4678 125.831 27.4678C126.272 27.4678 126.531 26.7998 126.609 25.4639L126.901 25.4834C126.849 26.6247 126.635 27.4094 126.259 27.8374C125.883 28.2655 125.267 28.4795 124.41 28.4795C122.854 28.4795 121.959 27.9996 121.726 27.0398C121.557 27.5326 121.304 27.8958 120.967 28.1293C120.63 28.3627 120.137 28.4795 119.488 28.4795C117.569 28.4795 116.609 27.6948 116.609 26.1254C116.609 25.2045 116.972 24.5754 117.698 24.2382C118.438 23.888 119.566 23.7129 121.084 23.7129ZM120.305 26.1059C120.305 26.7804 120.338 27.2149 120.403 27.4094C120.481 27.604 120.617 27.7013 120.811 27.7013C121.019 27.7013 121.207 27.5391 121.375 27.2149C121.557 26.8776 121.648 26.4172 121.648 25.8335V24.0242H121.512C120.707 24.0242 120.305 24.6144 120.305 25.7946V26.1059ZM127.131 19.0242H131.82V20.8141C132.027 20.2175 132.345 19.7376 132.773 19.3744C133.201 19.0112 133.849 18.8297 134.718 18.8297C136.729 18.8297 137.734 19.9127 137.734 22.0787V27.9347H138.823V28.2849H133.318V27.9347H134.115V21.6118C134.115 20.8335 134.063 20.3342 133.96 20.1137C133.856 19.8802 133.668 19.7635 133.395 19.7635C132.98 19.7635 132.611 20.0359 132.287 20.5806C131.975 21.1254 131.82 21.7869 131.82 22.5651V27.9347H132.656V28.2849H127.131V27.9347H128.201V19.3744H127.131V19.0242ZM139.528 28.4795V24.997H139.761C140.099 26.1254 140.553 26.9166 141.123 27.3705C141.694 27.8245 142.407 28.0514 143.263 28.0514C144.586 28.0514 145.248 27.6299 145.248 26.7869C145.248 26.4237 145.086 26.1513 144.761 25.9697C144.256 25.6844 143.607 25.4639 142.816 25.3083C141.934 25.0748 141.195 24.7635 140.598 24.3744C139.885 23.9075 139.528 23.1682 139.528 22.1565C139.528 21.1448 139.839 20.3407 140.462 19.7441C141.084 19.1345 141.914 18.8297 142.952 18.8297C143.588 18.8297 144.243 18.9788 144.917 19.2771C145.164 19.3809 145.352 19.4328 145.481 19.4328C145.611 19.4328 145.721 19.3874 145.812 19.2966C145.903 19.2058 146.013 19.0372 146.143 18.7907H146.357V21.7674H146.123C145.462 20.0813 144.437 19.2382 143.049 19.2382C142.44 19.2382 141.986 19.3485 141.688 19.569C141.389 19.7765 141.24 20.0424 141.24 20.3666C141.24 20.5612 141.285 20.7168 141.376 20.8335C141.467 20.9373 141.538 21.0151 141.59 21.067C141.642 21.1189 141.726 21.1773 141.843 21.2421C141.96 21.294 142.057 21.3394 142.135 21.3783C142.213 21.4042 142.33 21.4431 142.485 21.495C142.654 21.5469 142.777 21.5793 142.855 21.5923C143.737 21.8128 144.372 22.0073 144.761 22.176C145.151 22.3316 145.52 22.5262 145.87 22.7596C146.584 23.2525 146.94 24.0502 146.94 25.1526C146.94 26.2421 146.616 27.0722 145.968 27.6429C145.319 28.2006 144.431 28.4795 143.302 28.4795C142.498 28.4795 141.72 28.2914 140.968 27.9153C140.812 27.8115 140.689 27.7596 140.598 27.7596C140.313 27.7596 140.034 27.9996 139.761 28.4795H139.528ZM149.87 28.4795C149.313 28.4795 148.891 28.3173 148.606 27.9931C148.333 27.6559 148.197 27.2538 148.197 26.7869C148.197 26.307 148.34 25.9049 148.625 25.5806C148.923 25.2564 149.338 25.0942 149.87 25.0942C150.402 25.0942 150.824 25.2304 151.135 25.5028C151.446 25.7752 151.602 26.1837 151.602 26.7285C151.602 27.2732 151.453 27.7013 151.154 28.0125C150.869 28.3238 150.441 28.4795 149.87 28.4795ZM155.525 17.6818C154.837 17.6818 154.345 17.5067 154.046 17.1565C153.761 16.8063 153.618 16.3718 153.618 15.853C153.618 15.3342 153.774 14.9062 154.085 14.569C154.409 14.2317 154.896 14.0631 155.544 14.0631C156.193 14.0631 156.686 14.2188 157.023 14.53C157.36 14.8284 157.529 15.2629 157.529 15.8335C157.529 16.3913 157.367 16.8387 157.042 17.176C156.718 17.5132 156.212 17.6818 155.525 17.6818ZM152.587 19.0242H157.354V27.9347H158.443V28.2849H152.665V27.9347H153.735V19.3744H152.587V19.0242ZM158.879 19.0242H163.567V20.8141C163.775 20.2175 164.093 19.7376 164.521 19.3744C164.949 19.0112 165.597 18.8297 166.466 18.8297C168.477 18.8297 169.482 19.9127 169.482 22.0787V27.9347H170.571V28.2849H165.065V27.9347H165.863V21.6118C165.863 20.8335 165.811 20.3342 165.707 20.1137C165.604 19.8802 165.416 19.7635 165.143 19.7635C164.728 19.7635 164.359 20.0359 164.034 20.5806C163.723 21.1254 163.567 21.7869 163.567 22.5651V27.9347H164.404V28.2849H158.879V27.9347H159.949V19.3744H158.879V19.0242Z"
        fill="#232323" />
</svg>