<svg width="20" height="16" viewBox="0 0 20 16" fill="none" xmlns="http://www.w3.org/2000/svg">
    <path
        d="M19.75 10.1698C19.6904 10.0003 19.6203 9.83492 19.5402 9.67448L15.8268 1.07556C15.7917 0.992742 15.7414 0.917488 15.6786 0.853818C15.4133 0.583705 15.0983 0.369435 14.7516 0.223248C14.4049 0.0770601 14.0333 0.00181761 13.658 0.00181761C13.2828 0.00181761 12.9112 0.0770601 12.5645 0.223248C12.2178 0.369435 11.9028 0.583705 11.6375 0.853818C11.504 0.989833 11.4289 1.17412 11.4286 1.36637V3.63833H8.57143V1.36637C8.5715 1.27087 8.55309 1.17629 8.51724 1.08803C8.48139 0.999772 8.42881 0.919569 8.3625 0.852C8.09718 0.581887 7.78218 0.367618 7.4355 0.22143C7.08881 0.0752425 6.71723 0 6.34197 0C5.9667 0 5.59512 0.0752425 5.24843 0.22143C4.90175 0.367618 4.58675 0.581887 4.32143 0.852C4.25865 0.91567 4.20834 0.990924 4.17321 1.07374L0.459822 9.67266C0.379721 9.8331 0.309642 9.99853 0.25 10.1679C0.0397323 10.7668 -0.0393578 11.4052 0.0182703 12.0384C0.0758983 12.6716 0.268851 13.2843 0.583611 13.8336C0.898372 14.383 1.32733 14.8556 1.84043 15.2185C2.35353 15.5813 2.93837 15.8256 3.55398 15.9341C4.16958 16.0427 4.80107 16.013 5.4042 15.847C6.00733 15.681 6.56751 15.3829 7.04551 14.9734C7.52351 14.5639 7.90776 14.0529 8.17135 13.4764C8.43494 12.8998 8.57148 12.2716 8.57143 11.6356V5.09239H11.4286V11.6356C11.4283 12.2716 11.5646 12.9 11.828 13.4767C12.0914 14.0535 12.4755 14.5646 12.9535 14.9743C13.4314 15.384 13.9916 15.6824 14.5947 15.8485C15.1979 16.0147 15.8294 16.0446 16.4451 15.9361C17.0608 15.8276 17.6458 15.5835 18.159 15.2207C18.6722 14.8579 19.1013 14.3852 19.4162 13.8359C19.731 13.2865 19.924 12.6737 19.9817 12.0404C20.0394 11.4071 19.9603 10.7687 19.75 10.1698ZM5.42054 1.79804C5.65868 1.59395 5.9558 1.47463 6.2667 1.45822C6.5776 1.44182 6.88526 1.52923 7.14286 1.70717V8.38764C6.58518 7.87795 5.90569 7.52638 5.17248 7.36816C4.43927 7.20993 3.67808 7.25062 2.96518 7.48612L5.42054 1.79804ZM4.28571 14.5437C3.72063 14.5437 3.16823 14.3732 2.69837 14.0536C2.22852 13.7341 1.86231 13.2799 1.64606 12.7485C1.42981 12.2171 1.37323 11.6324 1.48347 11.0683C1.59371 10.5042 1.86583 9.986 2.26541 9.57929C2.66499 9.17258 3.17408 8.89561 3.72831 8.7834C4.28255 8.67119 4.85702 8.72878 5.3791 8.94889C5.90117 9.169 6.3474 9.54174 6.66134 10.02C6.97529 10.4982 7.14286 11.0605 7.14286 11.6356C7.14286 12.4069 6.84184 13.1466 6.30602 13.692C5.7702 14.2374 5.04348 14.5437 4.28571 14.5437ZM12.8571 1.70626C13.1147 1.52832 13.4224 1.44091 13.7333 1.45731C14.0442 1.47372 14.3413 1.59304 14.5795 1.79714L17.0348 7.48431C16.3218 7.24892 15.5606 7.20838 14.8274 7.36676C14.0942 7.52515 13.4147 7.87688 12.8571 8.38673V1.70626ZM15.7143 14.5437C15.1492 14.5437 14.5968 14.3732 14.1269 14.0536C13.6571 13.7341 13.2909 13.2799 13.0746 12.7485C12.8584 12.2171 12.8018 11.6324 12.912 11.0683C13.0223 10.5042 13.2944 9.986 13.694 9.57929C14.0936 9.17258 14.6027 8.89561 15.1569 8.7834C15.7111 8.67119 16.2856 8.72878 16.8077 8.94889C17.3297 9.169 17.776 9.54174 18.0899 10.02C18.4039 10.4982 18.5714 11.0605 18.5714 11.6356C18.5714 12.4069 18.2704 13.1466 17.7346 13.692C17.1988 14.2374 16.472 14.5437 15.7143 14.5437Z"
        fill="#AAAAAA" />
</svg>