<svg width="19" height="18" viewBox="0 0 19 18" fill="none" xmlns="http://www.w3.org/2000/svg">
    <path
        d="M18.0853 12.1013L13.6098 10.2014L13.5975 10.196C13.3651 10.1019 13.1117 10.0641 12.86 10.0861C12.6084 10.1081 12.3665 10.1892 12.1563 10.322C12.1315 10.3375 12.1078 10.3543 12.085 10.3724L9.77273 12.2399C8.30782 11.5658 6.79541 10.1438 6.08385 8.774L8.05797 6.55008C8.07697 6.52758 8.09502 6.50508 8.11212 6.48078C8.24932 6.28215 8.33257 6.05447 8.35445 5.81799C8.37633 5.58151 8.33616 5.34358 8.23752 5.12537V5.11457L6.22635 0.867426C6.09595 0.582362 5.87174 0.344895 5.58718 0.190474C5.30261 0.0360539 4.97296 -0.0270376 4.64744 0.010618C3.36015 0.171096 2.17854 0.770017 1.3233 1.69552C0.468065 2.62102 -0.0023189 3.80982 8.59627e-06 5.03987C8.59627e-06 12.1859 6.13705 18 13.6801 18C14.9785 18.0022 16.2333 17.5566 17.2102 16.7463C18.1872 15.9361 18.8194 14.8167 18.9887 13.5971C19.0286 13.2889 18.9621 12.9766 18.7993 12.7071C18.6365 12.4375 18.386 12.225 18.0853 12.1013ZM13.6801 16.56C10.4561 16.5566 7.36521 15.3418 5.08551 13.1821C2.80582 11.0224 1.52354 8.09417 1.52002 5.03987C1.51645 4.161 1.85067 3.31095 2.46028 2.64846C3.06988 1.98597 3.91318 1.55635 4.83269 1.43983C4.83232 1.44342 4.83232 1.44704 4.83269 1.45063L6.82771 5.68067L4.86404 7.9073C4.84411 7.92902 4.82601 7.95219 4.80989 7.9766C4.66693 8.18442 4.58306 8.42371 4.56642 8.67128C4.54978 8.91884 4.60092 9.16628 4.71489 9.38961C5.5756 11.0573 7.34926 12.725 9.12862 13.5395C9.36609 13.6465 9.62879 13.6933 9.89105 13.6753C10.1533 13.6573 10.4062 13.5752 10.6249 13.4369C10.6493 13.4214 10.6727 13.4046 10.6952 13.3865L13.0047 11.5199L17.4697 13.4144C17.4697 13.4144 17.4773 13.4144 17.4801 13.4144C17.3586 14.2868 16.9058 15.0873 16.2064 15.6663C15.507 16.2452 14.6089 16.5629 13.6801 16.56Z"
        fill="#636363" />
</svg>