<svg width="63" height="63" viewBox="0 0 63 63" fill="none" xmlns="http://www.w3.org/2000/svg">
<g clip-path="url(#clip0_92_247)">
<path d="M8.9009 53.0396L8.88213 52.9903C8.71169 52.5723 8.25678 52.1544 7.95886 51.8107L6.8519 50.4966C3.22307 45.9643 0.711261 39.6391 0.272718 33.8038C0.176848 32.5282 0.166346 30.2286 0.276012 28.9578L0.475873 27.4792C0.83507 25.1406 1.40456 22.7233 2.25504 20.5098C6.48672 9.49633 16.3892 2.021 27.9469 0.460446L28.962 0.337013C30.1205 0.168816 32.6217 0.171179 33.8531 0.27077C34.2362 0.301748 34.6238 0.407223 35.0067 0.459729C36.1792 0.62048 37.3458 0.796662 38.5004 1.06128C44.6218 2.46422 50.6201 6.05941 54.7698 10.762C56.707 12.9573 58.7735 16.1104 59.9385 18.7487L61.0317 21.5486C62.1401 24.7002 62.7626 28.0731 62.764 31.4199L62.7559 33.275C62.541 37.4368 60.9268 42.6338 58.9543 46.2475C55.8959 51.8512 50.4514 57.2469 44.5208 59.8585C41.4168 61.2254 38.0655 62.2702 34.6821 62.5939L33.4697 62.732C32.9766 62.7649 32.4787 62.7526 31.9846 62.7533L28.639 62.6097C27.8536 62.5473 27.0886 62.5034 26.3104 62.3663C22.6566 61.7229 18.5139 60.0074 15.3769 58.1361L12.1713 56.0528C11.5772 55.6252 10.924 55.2108 10.3849 54.7166C9.62334 54.4634 9.08991 53.807 8.9009 53.0396ZM17.2318 45.9651L28.7355 45.9595C30.0255 45.9538 31.4548 45.8898 31.4082 47.5884L31.368 48.0481C32.4456 48.5305 33.5213 49.7305 33.9272 50.803L33.9913 51.0029C34.0973 51.3692 34.1491 51.6967 34.1514 52.0784L34.3028 52.2292C35.2091 51.7165 35.4038 51.7054 36.4224 51.431C41.0989 50.1715 44.0173 48.2306 47.3287 44.5726C47.8534 43.9931 48.2932 43.3317 48.8336 42.7669C52.1405 43.9859 53.2474 40.1152 51.1534 38.659C50.9271 38.5016 50.6653 38.3861 50.4187 38.2651C51.4477 35.5646 52.0192 32.5226 52.0252 29.6254C52.0267 28.9371 52.0547 28.2279 52.0026 27.5416C51.6803 23.3034 50.368 19.2589 47.9113 15.7897C44.2139 10.5688 39.2425 7.38424 32.9026 6.77988C28.9551 6.40358 24.3988 6.97595 20.7564 8.66472C14.1223 11.7406 10.3769 18.0504 9.63503 25.2269L9.52619 26.2865C9.32046 29.722 9.5957 32.9181 10.6503 36.215C11.8043 39.8224 13.3735 41.8571 15.8251 44.5526C16.2289 44.9966 16.926 45.5191 17.2318 45.9651Z" fill="#FFDC60"/>
<path d="M34.1514 52.0924L34.3027 52.2292C35.7719 52.3075 36.3052 53.7511 35.1072 54.7266C34.9932 54.8195 34.6805 54.8008 34.538 54.8029L14.9824 54.8069C13.9818 54.8051 12.9884 54.7273 11.9848 54.7235L10.3848 54.7227C9.62332 54.4634 9.08989 53.8071 8.90088 53.0396C9.53119 52.4219 9.43329 52.6485 10.1816 52.2884L10.2264 52.266C10.428 52.2044 10.6748 52.2046 10.885 52.1929L32.5809 52.1719C33.088 52.1736 33.6182 52.2404 34.1215 52.2061L34.1514 52.0924Z" fill="#B41E35"/>
<path d="M17.2317 45.9651L28.7354 45.9595C30.0254 45.9539 31.4547 45.8899 31.4081 47.5884L31.3679 48.0481C32.4455 48.5306 33.5212 49.7305 33.9271 50.803L33.9912 51.003C34.0972 51.3693 34.149 51.6967 34.1513 52.0784L34.1214 52.2061C33.6181 52.2404 33.0879 52.1736 32.5809 52.1719L10.8849 52.1929C10.6747 52.2046 10.4279 52.2044 10.2263 52.2601C10.1998 52.0434 10.2014 51.8057 10.2308 51.5835L10.2873 51.2136C10.5129 50.117 11.1372 49.3012 12.0667 48.6904L12.9432 48.1655L12.9514 48.0383C12.5163 47.1082 13.5935 46.1847 14.4735 46.006C14.7948 45.9408 15.1626 45.9684 15.491 45.9674L17.2317 45.9651Z" fill="#6F101E"/>
<path d="M17.2321 45.9651L28.7357 45.9595C30.0258 45.9539 31.4551 45.8899 31.4084 47.5884L31.3682 48.0481C31.1717 47.9984 30.9444 48.0379 30.7413 48.0399L13.9862 47.9718C13.7503 47.9728 13.3217 48.045 13.1096 47.9656L12.9518 48.0359C12.5167 47.1082 13.5938 46.1847 14.4739 46.006C14.7951 45.9408 15.1629 45.9684 15.4913 45.9674L17.2321 45.9651Z" fill="#B41E35"/>
<path d="M41.8554 33.2653C42.7536 33.6488 43.6182 34.1933 44.4603 34.6892L50.4186 38.2651C50.6652 38.3861 50.927 38.5016 51.1533 38.659C53.2473 40.1153 52.1404 43.986 48.8335 42.7669L39.7437 36.2672L39.8457 35.095C39.98 34.361 40.5052 34.135 41.0982 33.7701L41.8554 33.2653Z" fill="#6F101E"/>
<path d="M27.3921 33.0532C27.8378 33.3168 28.3768 33.6645 28.6622 34.1044L28.7735 34.2892C29.2384 35.2582 28.741 36.4695 27.7939 36.9343L27.7539 36.9537C26.4804 37.5956 25.1144 36.436 24.0865 35.7818L14.7676 30.0146C14.0824 29.6074 13.3198 29.2258 13.0349 28.4242C12.4534 26.788 14.2427 25.2773 15.9274 26.1115L27.3921 33.0532Z" fill="#B41E35"/>
<path d="M23.9131 12.5216C21.3762 10.6417 23.4115 8.16914 25.3169 8.7306L25.3601 8.74307C25.868 8.89375 26.3183 9.18118 26.7646 9.45903L36.8657 15.6729C37.7245 16.1874 38.5727 16.6317 38.8547 17.6572L38.8713 17.7154C39.137 18.6694 38.4549 19.8083 37.5139 20.0568L37.4794 20.0666C36.7842 20.258 36.1431 19.9305 35.5379 19.6332L23.9131 12.5216Z" fill="#B41E35"/>
<path d="M23.9131 12.5216L35.5378 19.6332C35.322 20.1189 34.9355 20.5668 34.6624 21.0303L31.3981 26.6C31.3407 26.7032 31.2597 26.8126 31.2289 26.9263L41.0832 32.821C41.3438 32.964 41.6177 33.0856 41.8556 33.2652L41.0983 33.7701C40.5054 34.1349 39.9802 34.3609 39.8458 35.0949L39.7438 36.2672L29.7094 30.0151L29.4132 29.8756C29.2508 30.0675 29.1409 30.3289 29.0113 30.5464L27.942 32.31C27.7744 32.5639 27.6055 32.8357 27.392 33.0532L15.9272 26.1115C16.0345 25.8238 16.2089 25.5817 16.3751 25.3267L22.5603 14.5884C22.9605 13.9006 23.3548 13.0914 23.9131 12.5216Z" fill="#FFDC60"/>
</g>
<defs>

</defs>
</svg>
